<?xml version="1.0" encoding="UTF-8" standalone="no"?>
<svg
   version="1.1"
   viewBox="0 0 256 256"
   id="svg2"
   xml:space="preserve"
   width="256"
   height="256"
   sodipodi:docname="clock5.svg"
   inkscape:version="1.3.2 (091e20e, 2023-11-25, custom)"
   xmlns:inkscape="http://www.inkscape.org/namespaces/inkscape"
   xmlns:sodipodi="http://sodipodi.sourceforge.net/DTD/sodipodi-0.dtd"
   xmlns="http://www.w3.org/2000/svg"
   xmlns:svg="http://www.w3.org/2000/svg"
   xmlns:rdf="http://www.w3.org/1999/02/22-rdf-syntax-ns#"
   xmlns:cc="http://creativecommons.org/ns#"
   xmlns:dc="http://purl.org/dc/elements/1.1/"><sodipodi:namedview
     id="namedview1"
     pagecolor="#ffffff"
     bordercolor="#000000"
     borderopacity="0.25"
     inkscape:showpageshadow="2"
     inkscape:pageopacity="0.0"
     inkscape:pagecheckerboard="0"
     inkscape:deskcolor="#d1d1d1"
     inkscape:zoom="1.8101934"
     inkscape:cx="13.258252"
     inkscape:cy="201.35971"
     inkscape:window-width="1920"
     inkscape:window-height="1129"
     inkscape:window-x="3432"
     inkscape:window-y="-8"
     inkscape:window-maximized="1"
     inkscape:current-layer="svg2" /><defs
     id="defs2" /><title
     id="title1">clock1</title><path
     id="path3"
     style="display:inline;fill:#e5e4e2;fill-opacity:1;stroke-width:0.310241"
     d="M 128.19727 10.611328 C 118.11498 10.599575 117.41987 10.636695 112.23047 11.46875 C 109.24622 11.947232 104.58367 12.831001 101.86914 13.431641 C 99.154627 14.03229 95.805883 14.875901 94.427734 15.306641 C 93.049576 15.73739 91.223733 16.351145 90.371094 16.671875 C 89.518455 16.992595 87.182212 17.883281 85.177734 18.650391 C 83.173256 19.4175 79.978263 20.768275 78.078125 21.652344 C 76.177997 22.536413 73.065647 24.13274 71.162109 25.199219 C 69.258561 26.265688 66.243229 28.081396 64.462891 29.234375 C 62.682542 30.387354 60.110312 32.173846 58.746094 33.203125 C 57.381865 34.232404 54.66224 36.399613 52.701172 38.019531 C 50.740094 39.63945 47.246461 42.868285 44.939453 45.195312 C 42.632455 47.52235 39.015712 51.583033 36.902344 54.21875 C 34.788936 56.854467 31.913097 60.76057 30.511719 62.898438 C 29.11032 65.036295 27.086388 68.321111 26.011719 70.199219 C 24.93708 72.077317 23.193221 75.430813 22.138672 77.650391 C 21.084123 79.869968 19.448482 83.711812 18.501953 86.1875 C 17.555464 88.663178 16.367921 92.0856 15.863281 93.792969 C 15.358602 95.500337 14.445344 99.062566 13.833984 101.70898 C 13.222625 104.35541 12.448421 108.26618 12.113281 110.40039 C 11.778152 112.5346 11.349256 116.37644 11.160156 118.9375 C 10.971056 121.49855 10.735572 124.71223 10.638672 126.07812 C 10.541812 127.44401 10.692123 131.42372 10.970703 134.92383 C 11.249313 138.42393 11.685667 142.75414 11.941406 144.54688 C 12.197096 146.3396 12.624045 148.92512 12.890625 150.29102 C 13.157235 151.6569 13.846919 154.66987 14.423828 156.98633 C 15.000708 159.30278 16.124703 163.14462 16.919922 165.52344 C 17.715111 167.90225 19.195425 171.80304 20.208984 174.19336 C 21.222533 176.58368 22.962103 180.28269 24.076172 182.41211 C 25.190281 184.54153 27.152438 187.96394 28.435547 190.01758 C 29.718696 192.07121 31.621584 194.93936 32.664062 196.39062 C 33.706551 197.84188 35.665159 200.42544 37.017578 202.13281 C 38.369987 203.84018 41.439706 207.24539 43.839844 209.70117 C 46.239981 212.15696 49.661598 215.42638 51.441406 216.96484 C 53.221214 218.50329 56.312039 220.9822 58.310547 222.47461 C 60.309065 223.96701 63.806604 226.35139 66.082031 227.77344 C 68.357459 229.19548 72.589304 231.55612 75.488281 233.01953 C 78.387268 234.48294 82.294114 236.28579 84.169922 237.02539 C 86.04574 237.76499 89.46545 238.99508 91.767578 239.75781 C 94.069716 240.52053 97.905575 241.61316 100.29297 242.1875 C 102.68036 242.76183 106.30914 243.51218 108.35547 243.85352 C 110.40181 244.19487 113.47049 244.62099 115.17578 244.80078 C 116.88106 244.98056 118.83351 245.17387 119.51562 245.23047 C 120.19773 245.28711 123.56181 245.35607 126.99023 245.38477 C 130.41866 245.41347 135.02366 245.29837 137.22266 245.12695 C 139.42165 244.95553 143.17316 244.52583 145.56055 244.17383 C 147.94794 243.82183 151.22764 243.25401 152.84766 242.91016 C 154.46767 242.56632 157.46733 241.81522 159.51367 241.24219 C 161.56001 240.66917 164.62871 239.72277 166.33398 239.13867 C 168.03926 238.55458 170.98498 237.43957 172.87891 236.66016 C 174.77283 235.88075 178.41456 234.1929 180.97266 232.91016 C 183.53075 231.6274 186.93539 229.78212 188.53711 228.81055 C 190.13883 227.83897 192.84354 226.09343 194.54883 224.92969 C 196.25411 223.76594 198.94992 221.77118 200.53906 220.49805 C 202.1282 219.22492 205.10817 216.67734 207.16211 214.83594 C 209.21605 212.99454 212.34377 209.90099 214.11133 207.96289 C 215.87889 206.0248 218.41652 203.08266 219.75195 201.42383 C 221.08739 199.76501 223.16587 197.0101 224.37109 195.30273 C 225.5763 193.59537 227.60882 190.45258 228.88672 188.31836 C 230.16462 186.18415 232.05715 182.74565 233.0918 180.67773 C 234.12644 178.60983 235.69484 175.19822 236.57812 173.0957 C 237.46141 170.99318 238.85374 167.23634 239.67188 164.74805 C 240.49001 162.25974 241.65367 158.19834 242.25781 155.72266 C 242.86194 153.24697 243.63353 149.54493 243.97266 147.49609 C 244.31179 145.44726 244.77199 142.30446 244.99414 140.51172 C 245.248 138.46321 245.39562 133.73559 245.39062 127.78516 C 245.3849 120.52252 245.2521 117.30437 244.82422 113.9707 C 244.51742 111.58039 243.98999 108.15796 243.65234 106.36523 C 243.31469 104.5725 242.61964 101.4297 242.10742 99.380859 C 241.59521 97.332021 240.7448 94.258933 240.2168 92.552734 C 239.6888 90.846546 238.45664 87.424123 237.47852 84.947266 C 236.50038 82.470408 235.01166 78.976332 234.16992 77.183594 C 233.32819 75.390856 231.68957 72.248057 230.5293 70.199219 C 229.36905 68.150371 227.2993 64.798848 225.92969 62.75 C 224.56008 60.701162 222.80652 58.186528 222.0332 57.162109 C 221.25989 56.13769 219.20276 53.623067 217.46094 51.574219 C 215.71912 49.525381 212.57117 46.157112 210.4668 44.089844 C 208.36242 42.022566 205.56026 39.402697 204.23828 38.267578 C 202.9163 37.132459 200.19345 34.978417 198.1875 33.480469 C 196.18156 31.98252 192.79695 29.649957 190.66797 28.298828 C 188.53899 26.947699 184.98445 24.899213 182.76758 23.746094 C 180.55072 22.592975 177.06196 20.927018 175.01562 20.042969 C 172.96929 19.15892 168.43528 17.485658 164.93945 16.324219 C 161.44363 15.16278 156.2805 13.71989 153.4668 13.119141 C 150.65308 12.518401 146.18811 11.712152 143.54492 11.326172 C 139.31375 10.708297 137.47857 10.622148 128.19727 10.611328 z M 128.01367 50.228516 C 128.64022 50.223318 129.2415 50.29123 129.97461 50.427734 C 131.02199 50.622754 132.65311 51.16135 133.59961 51.625 C 134.54611 52.08865 135.99452 53.140001 136.81641 53.962891 C 137.66843 54.81595 138.73629 56.359636 139.30078 57.552734 C 140.22754 59.511547 140.28116 61.489022 140.41211 84.287109 L 140.41211 115.48242 L 164.12891 115.48242 C 171.68486 115.58884 174.35617 115.72713 176.25586 116.39648 C 177.62009 116.87717 179.31258 117.60628 180.01758 118.01758 C 180.72259 118.42888 181.93688 119.47547 182.71484 120.3418 C 183.49279 121.20813 184.43581 122.71207 184.81055 123.68555 C 185.31319 124.99131 185.49126 126.12545 185.49219 128.00977 C 185.49338 130.2472 185.37413 130.81081 184.52148 132.54492 C 183.94514 133.71706 182.91074 135.1206 181.98633 135.98633 C 181.12765 136.7905 179.54493 137.86101 178.46875 138.36523 C 177.39256 138.86946 175.5479 139.4863 174.36914 139.73633 C 172.59496 140.11265 168.19454 140.19145 148.81641 140.18945 C 125.40755 140.18747 125.40659 140.18678 123.66797 139.4707 C 122.71172 139.07685 121.51749 138.46075 121.01367 138.10156 C 120.50984 137.74236 119.50092 136.80013 118.77148 136.00781 C 118.04204 135.21549 117.07477 133.7756 116.62109 132.80664 C 115.79623 131.0449 115.79492 131.04431 115.79492 95.5 C 115.79492 59.955706 115.79658 59.954683 116.52734 58.140625 C 116.92926 57.142896 117.83451 55.622318 118.54102 54.761719 C 119.24753 53.90113 120.70401 52.669317 121.77734 52.023438 C 123.0979 51.228778 124.43158 50.723757 125.90039 50.460938 C 126.736 50.311423 127.38712 50.233713 128.01367 50.228516 z " /><metadata
     id="metadata1"><rdf:RDF><cc:Work
         rdf:about=""><dc:title>clock1</dc:title></cc:Work></rdf:RDF></metadata></svg>
