<?xml version="1.0" encoding="UTF-8" standalone="no"?>
<svg
   version="1.1"
   viewBox="0 0 256 256"
   id="svg2"
   sodipodi:docname="clock4.svg"
   inkscape:version="1.3.2 (091e20e, 2023-11-25, custom)"
   xmlns:inkscape="http://www.inkscape.org/namespaces/inkscape"
   xmlns:sodipodi="http://sodipodi.sourceforge.net/DTD/sodipodi-0.dtd"
   xmlns="http://www.w3.org/2000/svg"
   xmlns:svg="http://www.w3.org/2000/svg">
  <defs
     id="defs2" />
  <sodipodi:namedview
     id="namedview2"
     pagecolor="#ffffff"
     bordercolor="#000000"
     borderopacity="0.25"
     inkscape:showpageshadow="2"
     inkscape:pageopacity="0.0"
     inkscape:pagecheckerboard="0"
     inkscape:deskcolor="#d1d1d1"
     inkscape:zoom="4.5820312"
     inkscape:cx="127.89088"
     inkscape:cy="128"
     inkscape:window-width="3440"
     inkscape:window-height="1369"
     inkscape:window-x="-8"
     inkscape:window-y="-8"
     inkscape:window-maximized="1"
     inkscape:current-layer="svg2" />
  <title
     id="title1">clock4</title>
  <path
     d="M128.17,11.05A118,118,0,0,0,10,128.79C9.64,193.61,63.36,247.34,128.09,247a118,118,0,0,0,.08-236ZM123.41,129.7c-27.93-1-55.87-.5-83.8-.69-2.76,0-4.56-.36-4.3-3.9a101.18,101.18,0,0,1,7.12-31.77c0-.07.06-.13.08-.19a83,83,0,0,1,7-13.28c.18-.28.37-.56.56-.84.33-.51.68-1,1-1.51.54-.78,1.08-1.54,1.62-2.29.41-.57.83-1.13,1.25-1.68a92.37,92.37,0,0,1,72.83-36.36c1.08.87,1.08,2.85,1.08,6.86V83.32c0,14-.1,27.94.06,41.91C128,128.74,126.85,129.81,123.41,129.7Z"
     id="path1"
     style="fill:#e5e4e2;fill-opacity:1" />
  <path
     d="m49.55 79.87a83 83 0 0 0-7 13.28 92.08 92.08 0 0 1 7.56-14.15c-0.19 0.31-0.38 0.59-0.56 0.87z"
     id="path2"
     style="fill:#e5e4e2;fill-opacity:1" />
</svg>
