<?xml version="1.0" encoding="UTF-8" standalone="no"?>
<svg
   version="1.1"
   viewBox="0 0 256 256"
   id="svg1"
   sodipodi:docname="clock2.svg"
   inkscape:version="1.3.2 (091e20e, 2023-11-25, custom)"
   xmlns:inkscape="http://www.inkscape.org/namespaces/inkscape"
   xmlns:sodipodi="http://sodipodi.sourceforge.net/DTD/sodipodi-0.dtd"
   xmlns="http://www.w3.org/2000/svg"
   xmlns:svg="http://www.w3.org/2000/svg">
  <defs
     id="defs1" />
  <sodipodi:namedview
     id="namedview1"
     pagecolor="#ffffff"
     bordercolor="#000000"
     borderopacity="0.25"
     inkscape:showpageshadow="2"
     inkscape:pageopacity="0.0"
     inkscape:pagecheckerboard="0"
     inkscape:deskcolor="#d1d1d1"
     inkscape:zoom="4.5820312"
     inkscape:cx="127.89088"
     inkscape:cy="128"
     inkscape:window-width="3440"
     inkscape:window-height="1369"
     inkscape:window-x="-8"
     inkscape:window-y="-8"
     inkscape:window-maximized="1"
     inkscape:current-layer="svg1" />
  <title
     id="title1">clock2</title>
  <path
     d="m128.4 11.05c-64.54-0.21-117.77 53-117.83 117.3s53 117.88 117.21 117.43c64.38 0.67 117.49-52.83 117.65-117 0.16-64.41-52.9-117.52-117.03-117.73zm-0.53 31.57v81.11c0 6.41 0 6.44 6.5 6.2 27.13-1 54.28-0.87 81.43-1.31 2.9-0.05 4.54-0.06 5.44 0.47v0.61a92.53 92.53 0 1 1-93.58-92.51 39.44 39.44 0 0 1 0.21 5.43z"
     id="path1"
     style="fill:#e5e4e2;fill-opacity:1" />
</svg>
