<?xml version="1.0" encoding="UTF-8" standalone="no"?>
<!-- Generator: Adobe Illustrator 17.1.0, SVG Export Plug-In . SVG Version: 6.00 Build 0)  -->

<svg
   version="1.1"
   id="Ebene_1"
   x="0px"
   y="0px"
   viewBox="0 0 255.99999 256.00001"
   enable-background="new 0 0 841.9 595.3"
   xml:space="preserve"
   sodipodi:docname="tx_mined.svg"
   inkscape:version="1.3.2 (091e20e, 2023-11-25, custom)"
   width="256"
   height="256"
   xmlns:inkscape="http://www.inkscape.org/namespaces/inkscape"
   xmlns:sodipodi="http://sodipodi.sourceforge.net/DTD/sodipodi-0.dtd"
   xmlns="http://www.w3.org/2000/svg"
   xmlns:svg="http://www.w3.org/2000/svg"><defs
   id="defs3" /><sodipodi:namedview
   id="namedview3"
   pagecolor="#ffffff"
   bordercolor="#000000"
   borderopacity="0.25"
   inkscape:showpageshadow="2"
   inkscape:pageopacity="0.0"
   inkscape:pagecheckerboard="0"
   inkscape:deskcolor="#d1d1d1"
   inkscape:zoom="2.8284271"
   inkscape:cx="105.88924"
   inkscape:cy="124.62757"
   inkscape:window-width="1920"
   inkscape:window-height="1129"
   inkscape:window-x="3432"
   inkscape:window-y="-8"
   inkscape:window-maximized="1"
   inkscape:current-layer="Ebene_1" />



<g
   id="g1"
   transform="matrix(0.52096935,0,0,0.52132376,-98.860378,-32.715621)"><path
     id="rect1"
     style="fill:#440128;fill-opacity:1;stroke:none"
     d="m 294.52373,87.471829 c -11.28011,-0.176678 -22.83025,0.44634 -34.61472,1.981879 l -2.50059,12.284692 c 90.10435,15.9763 133.83534,54.92611 171.21778,90.99806 l -14.22378,14.22161 36.09558,36.09726 -238.66643,238.65777 47.41012,47.41161 238.66642,-238.66152 34.17608,34.17906 13.81889,-13.82074 c 38.92365,35.92696 80.27447,81.36937 97.45955,169.47543 l 13.51147,-2.49891 C 669.09087,392.56868 628.74398,319.52198 583.37079,273.3568 L 595.78755,260.93724 478.10204,143.2568 464.75927,156.59799 C 424.96492,120.91963 365.05382,88.576507 294.52373,87.471829 Z" /></g>
</svg>
