<?xml version="1.0" encoding="UTF-8" standalone="no"?>
<!-- Created with Inkscape (http://www.inkscape.org/) -->

<svg
   width="256"
   height="256"
   viewBox="0 0 67.733332 67.733333"
   version="1.1"
   id="svg1"
   xml:space="preserve"
   inkscape:version="1.3.2 (091e20e, 2023-11-25, custom)"
   sodipodi:docname="bdap.svg"
   xmlns:inkscape="http://www.inkscape.org/namespaces/inkscape"
   xmlns:sodipodi="http://sodipodi.sourceforge.net/DTD/sodipodi-0.dtd"
   xmlns="http://www.w3.org/2000/svg"
   xmlns:svg="http://www.w3.org/2000/svg"><sodipodi:namedview
     id="namedview1"
     pagecolor="#999999"
     bordercolor="#000000"
     borderopacity="0.25"
     inkscape:showpageshadow="2"
     inkscape:pageopacity="0.0"
     inkscape:pagecheckerboard="0"
     inkscape:deskcolor="#363636"
     inkscape:document-units="mm"
     inkscape:zoom="0.83116582"
     inkscape:cx="396.43112"
     inkscape:cy="272.5088"
     inkscape:window-width="1920"
     inkscape:window-height="1129"
     inkscape:window-x="3432"
     inkscape:window-y="-8"
     inkscape:window-maximized="1"
     inkscape:current-layer="layer1" /><defs
     id="defs1" /><g
     inkscape:label="Laag 1"
     inkscape:groupmode="layer"
     id="layer1"><path
       style="fill:#440128;stroke-width:0.247939;fill-opacity:1"
       d="m 50.015998,63.228773 c -0.70611,-0.29518 -1.12555,-0.65061 -2.83875,-2.40549 -2.47587,-2.53613 -4.19831,-4.5176 -4.39576,-5.05683 -0.90409,-2.46909 1.13157,-4.95153 3.76214,-4.58783 1.03864,0.14359 1.47064,0.44336 3.52698,2.44734 l 1.24636,1.21463 2.84479,-2.81376 c 3.82408,-3.782372 4.30296,-4.168631 5.3737,-4.334367 2.49724,-0.386538 4.70744,2.499277 3.63475,4.745807 -0.6125,1.28278 -9.3819,10.05502 -10.70239,10.70587 -0.6006,0.29602 -1.84353,0.33893 -2.45182,0.0846 z m -38.42012,-8.5036 C 3.9489584,54.556093 1.5430484,46.05019 8.0534484,42.201191 c 0.451,-0.266636 0.98237,-0.579703 1.18081,-0.695701 1.5182896,-0.887514 7.4656396,-4.13505 10.6836596,-5.833787 1.5719,-0.829782 1.38261,-0.815384 2.69,-0.20461 4.28132,2.000109 8.37363,1.95721 13.05395,-0.136845 l 0.94176,-0.42136 2.56788,1.424738 c 3.31151,1.837333 4.7987,2.652385 6.89751,3.780163 3.61939,1.944846 4.50939,2.500007 5.42887,3.386391 1.13881,1.097809 1.9512,2.7668 1.9512,4.008561 0,0.555123 -0.0503,0.627006 -1.32153,1.887389 l -0.94169,0.933673 -0.61718,-0.549686 c -4.33361,-3.859728 -11.20933,-1.25772 -11.65269,4.409766 l -0.0472,0.60304 -12.63607,-0.0118 c -6.94983,-0.006 -13.53643,-0.0317 -14.63688,-0.056 z m 16.30601,-20.80088 c -9.07437,-0.830047 -14.67076,-11.96389 -10.69622,-21.279788 4.60941,-10.8039559 18.19641,-11.1436619 23.25485,-0.581425 4.92729,10.288384 -2.26203,22.80306 -12.55863,21.861213 z"
       id="path1" /></g></svg>
