<?xml version="1.0" encoding="UTF-8" standalone="no"?>
<svg
   version="1.1"
   viewBox="0 0 256 256"
   id="svg2"
   sodipodi:docname="editcopy.svg"
   inkscape:version="1.3.2 (091e20e, 2023-11-25, custom)"
   xmlns:inkscape="http://www.inkscape.org/namespaces/inkscape"
   xmlns:sodipodi="http://sodipodi.sourceforge.net/DTD/sodipodi-0.dtd"
   xmlns="http://www.w3.org/2000/svg"
   xmlns:svg="http://www.w3.org/2000/svg">
  <defs
     id="defs2" />
  <sodipodi:namedview
     id="namedview2"
     pagecolor="#ffffff"
     bordercolor="#000000"
     borderopacity="0.25"
     inkscape:showpageshadow="2"
     inkscape:pageopacity="0.0"
     inkscape:pagecheckerboard="0"
     inkscape:deskcolor="#d1d1d1"
     inkscape:zoom="4.5820312"
     inkscape:cx="127.89088"
     inkscape:cy="128"
     inkscape:window-width="3440"
     inkscape:window-height="1369"
     inkscape:window-x="-8"
     inkscape:window-y="-8"
     inkscape:window-maximized="1"
     inkscape:current-layer="svg2" />
  <title
     id="title1">editcopy</title>
  <path
     d="m171.7 208.82v22.84c0 9.56-4.83 14.32-14.47 14.33h-132.73q-14.5 0.01-14.5-14.32 0-66.36 0-132.67c0-9.29 4.89-14.11 14.26-14.13h24 42.59q33.08 0 66.14 0c9.95 0 14.7 4.7 14.7 14.54q0.03 54.67 0.01 109.41z"
     id="path1"
     style="fill:#e5e4e2;fill-opacity:1" />
  <path
     d="M246,91.34q0,33,0,65.94c0,9.91-4.72,14.63-14.6,14.65-10.63,0-21.26-.06-31.89,0V95.1a37.34,37.34,0,0,0-37.37-37.25H84.31q0-16.53,0-33.06c0-9.08,4.89-14,13.92-14q67,0,134,0c8.75,0,13.71,5,13.73,13.78Q246,57.94,246,91.34Z"
     id="path2"
     style="fill:#e5e4e2;fill-opacity:1" />
</svg>
