<?xml version="1.0" encoding="UTF-8" standalone="no"?>
<svg
   version="1.1"
   viewBox="0 0 256 256"
   id="svg1"
   sodipodi:docname="export.svg"
   inkscape:version="1.3.2 (091e20e, 2023-11-25, custom)"
   xmlns:inkscape="http://www.inkscape.org/namespaces/inkscape"
   xmlns:sodipodi="http://sodipodi.sourceforge.net/DTD/sodipodi-0.dtd"
   xmlns="http://www.w3.org/2000/svg"
   xmlns:svg="http://www.w3.org/2000/svg">
  <defs
     id="defs1" />
  <sodipodi:namedview
     id="namedview1"
     pagecolor="#ffffff"
     bordercolor="#000000"
     borderopacity="0.25"
     inkscape:showpageshadow="2"
     inkscape:pageopacity="0.0"
     inkscape:pagecheckerboard="0"
     inkscape:deskcolor="#d1d1d1"
     inkscape:zoom="4.5820312"
     inkscape:cx="127.89088"
     inkscape:cy="128"
     inkscape:window-width="3440"
     inkscape:window-height="1369"
     inkscape:window-x="-8"
     inkscape:window-y="-8"
     inkscape:window-maximized="1"
     inkscape:current-layer="svg1" />
  <title
     id="title1">export</title>
  <g
     id="r7zAsL.tif"
     style="fill:#e5e4e2;fill-opacity:1">
    <path
       d="m16 245.72a29.52 29.52 0 0 1-0.22-8c0.71-15.22 2.07-30.38 5.11-45.34 6.17-30.39 16.64-59 35.15-84.24 10.11-13.79 22.14-25.49 37.37-33.6 9.53-5.07 19.6-8.37 30.47-9 4.18-0.22 4.32-0.4 4.32-4.66q0-19.38 0-38.75a21.75 21.75 0 0 1 0.92-7.18c1.37-4.05 4.78-5.64 8.8-4.17a14.25 14.25 0 0 1 4 2.36q43.23 34.76 86.54 69.46a30 30 0 0 0 3 2.35c9.13 5.59 9.72 14.24 8.48 23.54a15.38 15.38 0 0 1-6.18 10.43q-46.11 36.78-92.07 73.76a12.1 12.1 0 0 1-4.59 2.46 6.2 6.2 0 0 1-7.9-4.14 20.22 20.22 0 0 1-1-7.16q0-20 0-39.92c0-3.92-0.34-4.13-4.14-3.79-22.86 2-41.82 12.35-58.3 27.74-19.65 18.35-33.3 40.8-43.91 65.26-1.51 3.47-2.84 7-4.32 10.51-0.31 0.71-0.24 1.77-1.53 2.08z"
       id="path1"
       style="fill:#e5e4e2;fill-opacity:1" />
  </g>
</svg>
