<?xml version="1.0" encoding="UTF-8" standalone="no"?>
<!-- Created with Inkscape (http://www.inkscape.org/) -->

<svg
   width="256"
   height="256"
   viewBox="0 0 67.733334 67.733334"
   version="1.1"
   id="svg1"
   xml:space="preserve"
   inkscape:version="1.3.2 (091e20e, 2023-11-25, custom)"
   sodipodi:docname="fluid.svg"
   xmlns:inkscape="http://www.inkscape.org/namespaces/inkscape"
   xmlns:sodipodi="http://sodipodi.sourceforge.net/DTD/sodipodi-0.dtd"
   xmlns="http://www.w3.org/2000/svg"
   xmlns:svg="http://www.w3.org/2000/svg"><sodipodi:namedview
     id="namedview1"
     pagecolor="#645f99"
     bordercolor="#000000"
     borderopacity="0.25"
     inkscape:showpageshadow="2"
     inkscape:pageopacity="0.0"
     inkscape:pagecheckerboard="0"
     inkscape:deskcolor="#6f6f6f"
     inkscape:document-units="mm"
     inkscape:zoom="1.4142136"
     inkscape:cx="12.020815"
     inkscape:cy="259.50819"
     inkscape:window-width="1718"
     inkscape:window-height="1360"
     inkscape:window-x="1713"
     inkscape:window-y="0"
     inkscape:window-maximized="0"
     inkscape:current-layer="layer1" /><defs
     id="defs1" /><g
     inkscape:label="Laag 1"
     inkscape:groupmode="layer"
     id="layer1"
     transform="translate(0.77560575,1.0981081)"><path
       id="path10"
       style="display:inline;fill:#e5e4e2;fill-opacity:1;stroke-width:0.333899"
       d="m 44.131156,3.1894694 -0.09457,0.013953 -0.09147,0.013436 -0.0279,0.00413 -0.15813,0.022738 -0.783415,1.0159586 c -2.448528,3.1740832 -4.650798,6.202095 -6.65334,9.131743 0.21315,-0.309557 0.423652,-0.61206 0.628902,-0.901754 -0.37385,0.527647 -0.767714,1.105182 -1.16427,1.691886 0.0809,-0.119767 0.160296,-0.238541 0.241846,-0.358634 -0.14417,0.211643 -0.287866,0.420592 -0.434082,0.638204 -0.10284,0.153058 -0.207036,0.311256 -0.310576,0.466638 0.0383,-0.05731 0.07789,-0.115221 0.116272,-0.172599 -0.40234,0.602 -0.808362,1.215166 -1.212846,1.836063 -0.371754,0.572312 -0.75397,1.14903 -1.110009,1.714624 -0.150328,0.237527 -0.27639,0.449312 -0.422197,0.682646 -0.543887,0.875477 -1.074886,1.745884 -1.582332,2.607593 -0.219373,0.374655 -0.42489,0.731171 -0.607198,1.057816 -0.186396,0.323994 -0.365328,0.645518 -0.546737,0.9679 -0.279308,0.496357 -0.551713,0.990845 -0.820622,1.484147 0.15668,-0.288777 0.311943,-0.573312 0.452169,-0.816488 -0.34466,0.5977 -0.747717,1.35323 -1.169954,2.180229 -0.897816,1.700217 -1.74809,3.388342 -2.510958,5.062223 -1.358026,2.979775 -1.849887,4.995794 -2.043286,8.374683 l -0.09095,1.590601 0.0124,0.479557 0.03876,1.463993 c 0.01773,0.67561 0.04587,1.238302 0.08062,1.769401 0.124038,1.896067 0.376994,3.050733 0.943612,4.483448 2.506382,6.337451 8.620758,11.263856 15.492077,12.481925 l 0.795301,0.14056 1.581298,0.02119 0.514698,0.0072 h 5.16e-4 c 0.27298,0.0029 0.554243,0.0016 0.841293,0.001 0.287416,5.89e-4 0.569016,0.0019 0.842326,-0.001 l 0.514697,-0.0072 c 0.474846,-0.0097 0.917882,-0.02229 1.138432,-0.04134 8.063408,-0.703185 15.731797,-7.362787 17.389119,-15.100887 0.129,-0.602319 0.216317,-1.280408 0.284737,-1.984892 0.0989,-1.018492 0.140253,-2.109 0.119373,-3.233394 -0.0539,-2.902028 -0.486922,-5.943317 -1.242818,-8.033101 -0.82591,-2.283388 -3.162603,-7.230998 -4.559929,-9.654192 -0.0712,-0.123432 -0.224374,-0.405163 -0.358634,-0.649572 -0.17829,-0.31696 -0.355005,-0.633584 -0.537435,-0.95188 -0.0144,-0.02514 -0.0284,-0.05028 -0.04289,-0.07545 -0.17413,-0.311271 -0.367889,-0.647302 -0.575159,-1.001489 -0.51144,-0.86876 -1.046255,-1.746548 -1.594735,-2.629297 C 55.268732,18.750696 55.14396,18.54105 54.9951,18.305858 54.65645,17.767888 54.29222,17.218984 53.93935,16.67495 52.983574,15.205746 52.009614,13.743241 51.121434,12.489676 50.662128,11.841414 50.168944,11.14609 50.025894,10.944034 49.882827,10.741991 48.948821,9.4882278 47.950045,8.1581584 46.951259,6.8280806 46.055922,5.6352684 45.960502,5.5076742 45.865102,5.3800786 45.414479,4.8065582 44.959013,4.2328166 L 44.155444,3.220992 Z M 43.194779,62.344515 v 5.17e-4 c 0.0145,1.5e-4 0.02994,-1.29e-4 0.04444,0 z m 0.04444,5.17e-4 v 5.17e-4 c 0.013,1.11e-4 0.02675,-9.6e-5 0.03979,0 z m 0.03979,5.17e-4 0.07235,0.001 c 0.17081,0.0023 0.339377,4.21e-4 0.511597,-5.17e-4 -0.198195,4.64e-4 -0.392598,8.83e-4 -0.583944,-5.16e-4 z M 28.380697,26.469702 c 0.191566,-0.362781 0.369551,-0.722467 0.56689,-1.086755 -0.187651,0.351312 -0.38238,0.722996 -0.58291,1.116211 0.0057,-0.01123 0.0103,-0.01825 0.01602,-0.02946 z m 15.694649,-17.0935301 2.661336,4.7402791 0.0016,0.0021 0.557072,0.992704 0.0016,0.0031 0.998905,1.779219 6.579443,11.718148 0.0041,0.0078 0.0098,0.01757 h -5.17e-4 l 1.010791,1.916679 c 0.170107,0.30185 0.383152,0.678828 0.411862,0.734838 2.277818,4.443943 3.339164,8.727819 2.901114,11.710397 -0.0246,0.167422 -0.04218,0.271184 -0.06408,0.415995 a 15.213542,15.213542 0 0 1 -7.127214,11.4639 c -0.17517,0.112384 -0.351387,0.220389 -0.529167,0.321944 -0.360936,0.206183 -0.576878,0.318769 -0.714168,0.357084 a 15.213542,15.213542 0 0 1 -6.73809,1.60352 15.213542,15.213542 0 0 1 -6.732922,-1.600419 C 37.170297,55.52569 36.952176,55.412366 36.581746,55.200765 36.39029,55.091393 36.200165,54.975923 36.011755,54.854016 A 15.213542,15.213542 0 0 1 28.935701,43.481584 c -0.02501,-0.164231 -0.04588,-0.28839 -0.07441,-0.482658 -0.438044,-2.982578 0.623287,-7.266454 2.901115,-11.710397 0.03283,-0.06406 0.318229,-0.567449 0.471289,-0.840258 l 0.95188,-1.858285 h -0.0036 l 0.03617,-0.06408 0.02635,-0.05116 0.0021,0.001 6.579444,-11.604459 0.0021,0.001 1.666048,-2.944006 z m -7.824329,4.1201621 c -0.0744,0.109071 -0.147812,0.217799 -0.221692,0.326595 0.0737,-0.108235 0.148652,-0.220215 0.221692,-0.326595 z m 21.422982,9.274369 c 0.16572,0.290487 0.327003,0.57962 0.489893,0.869198 -0.0888,-0.161746 -0.153795,-0.275152 -0.237195,-0.429948 -0.0663,-0.123132 -0.164198,-0.287097 -0.252698,-0.43925 z m -28.575,2.335258 c -0.05099,0.09397 -0.09851,0.17892 -0.150895,0.276986 0.04995,-0.09221 0.100575,-0.184674 0.150895,-0.276986 z" /><path
       id="path2"
       style="display:inline;fill:#e5e4e2;fill-opacity:1;stroke-width:0.240801"
       d="m 29.321695,9.0190877 c -0.815408,-0.00282 -1.913447,0.00247 -3.401859,0.00723 l -5.312854,0.017053 -0.268201,0.1772501 c -0.450996,0.2984829 -0.470607,0.3783434 -0.992188,4.0581502 -0.310034,2.187333 -0.50055,3.352007 -0.55087,3.368787 -0.646758,0.215582 -3.143329,1.65603 -3.883484,2.24069 L 14.687446,19.06602 11.504695,17.791162 C 6.9074265,15.949882 8.2327712,14.893364 2.3822537,25.063586 1.903245,25.89621 1.853087,26.01537 1.853087,26.317257 c 0,0.703185 -0.1452419,0.558363 3.058728,3.05511 l 2.6096599,2.033468 -0.047026,0.541569 c -0.06048,0.69938 -0.06048,3.123643 0,3.823022 l 0.047026,0.541569 -2.6096599,2.033468 c -3.1739989,2.473395 -3.058728,2.360607 -3.058728,2.999817 0,0.406417 -0.08107,0.254081 2.6535848,4.991943 2.7276243,4.725621 2.6199632,4.554253 2.9662272,4.730978 0.5122558,0.261444 0.6273162,0.228589 4.057634,-1.148767 l 3.147612,-1.263489 0.54932,0.401526 c 0.75268,0.55037 1.855658,1.196169 2.823084,1.653129 0.671343,0.317106 0.815099,0.409439 0.841809,0.541569 0.01771,0.0876 0.23403,1.592939 0.481107,3.345015 0.522128,3.702436 0.542982,3.771175 1.212846,4.038513 0.33453,0.133503 10.631626,0.08583 10.932149,-0.05064 0.106191,-0.04822 0.187324,-0.08799 0.26045,-0.134359 -3.068294,-2.246891 -5.527283,-5.288624 -6.899838,-8.759155 -0.72533,-1.834038 -0.943187,-3.165245 -1.024227,-6.252849 l -0.03101,-1.174605 c -3.624983,-0.979297 -6.488493,-4.326301 -6.488493,-8.405172 0,-6.341058 6.264418,-10.037862 11.523844,-8.197949 1.511192,-2.820682 3.220478,-5.698948 5.13147,-8.66252 -0.317522,-0.161801 -0.568777,-0.277697 -0.643372,-0.279053 -0.182388,-0.0034 -0.236476,-0.274218 -0.68988,-3.44165 C 32.126747,9.5705753 32.162938,9.7620821 31.940657,9.4655721 31.67083,9.1056374 31.76792,9.0275343 29.321695,9.0190877 Z" /><path
       id="rect44"
       style="fill:#e5e4e2;fill-opacity:1;fill-rule:evenodd;stroke:none;stroke-width:4.96094;paint-order:stroke fill markers"
       d="m 47.252777,21.756329 -0.01041,0.124027 c -0.0057,0.06818 0.0562,0.433305 0.137282,0.811575 0.08108,0.37827 0.207031,0.971168 0.280089,1.31736 0.07304,0.3462 0.232573,1.09164 0.354326,1.656495 0.121754,0.564848 0.307041,1.44435 0.411867,1.95453 0.104817,0.510188 0.231552,1.106468 0.281373,1.325115 0.0499,0.21864 0.14554,0.665753 0.212688,0.993735 0.06716,0.327968 0.2191,1.058693 0.337711,1.62354 0.118619,0.564848 0.230768,1.11618 0.24904,1.225508 0.01827,0.109327 0.15161,0.765262 0.296601,1.457662 1.581988,7.554795 1.304112,11.177265 -1.373759,17.907053 -0.206778,0.51966 -0.362732,0.98943 -0.346516,1.04373 0.0092,0.03056 0.02458,0.04823 0.04238,0.06317 0.02722,0.006 0.05476,0.0096 0.08205,0.01512 0.09748,-0.0078 0.265376,-0.08411 0.605942,-0.269752 2.390448,-1.303035 4.622253,-3.826733 5.72787,-6.476738 0.428427,-1.026885 0.513728,-1.301662 0.830721,-2.675032 0.516318,-2.236943 -0.01001,-5.44944 -1.438601,-8.782403 -0.332538,-0.775822 -4.566841,-9.535057 -4.72293,-9.76995 -0.02424,-0.03645 -0.119849,-0.230167 -0.212291,-0.430597 -0.09244,-0.200423 -0.237642,-0.509835 -0.322879,-0.687548 -0.08524,-0.177705 -0.271144,-0.64725 -0.413128,-1.043737 l -0.25807,-0.720885 -0.249325,-0.33099 -0.249333,-0.33099 H 47.37912 Z" /></g></svg>
