<?xml version="1.0" encoding="UTF-8" standalone="no"?>
<svg
   version="1.1"
   viewBox="0 0 256 256"
   id="svg2"
   sodipodi:docname="fontsmaller.svg"
   inkscape:version="1.3.2 (091e20e, 2023-11-25, custom)"
   xmlns:inkscape="http://www.inkscape.org/namespaces/inkscape"
   xmlns:sodipodi="http://sodipodi.sourceforge.net/DTD/sodipodi-0.dtd"
   xmlns="http://www.w3.org/2000/svg"
   xmlns:svg="http://www.w3.org/2000/svg">
  <defs
     id="defs2" />
  <sodipodi:namedview
     id="namedview2"
     pagecolor="#ffffff"
     bordercolor="#000000"
     borderopacity="0.25"
     inkscape:showpageshadow="2"
     inkscape:pageopacity="0.0"
     inkscape:pagecheckerboard="0"
     inkscape:deskcolor="#d1d1d1"
     inkscape:zoom="2.2910156"
     inkscape:cx="245.96079"
     inkscape:cy="235.48508"
     inkscape:window-width="3440"
     inkscape:window-height="1369"
     inkscape:window-x="-8"
     inkscape:window-y="-8"
     inkscape:window-maximized="1"
     inkscape:current-layer="svg2" />
  <title
     id="title1">fontsmaller</title>
  <path
     id="rect1"
     style="display:inline;fill:#e5e4e2;fill-rule:evenodd;stroke-width:31.25;paint-order:stroke fill markers"
     d="m 72.751378,60.641816 c -3.155981,0.116843 -4.726471,1.875996 -5.79834,5.375976 -5.849962,18.749887 -11.987432,37.425638 -18.024902,56.125488 -7.387455,22.84985 -14.724159,45.72525 -22.224122,68.5376 -1.149992,3.4875 -0.725465,4.80028 3.249513,4.67528 7.324955,-0.225 14.662342,-0.2 21.987305,0 3.274977,0.0875 4.761816,-1.2499 5.549316,-4.2749 1.562493,-6.03742 3.475691,-11.9877 5.075684,-18.0127 0.762492,-2.87492 2.300015,-4.05087 5.3125,-4.02587 11.537425,0.1125 23.08902,0.1375 34.626468,0 3.24993,0 4.76123,1.24997 5.57373,4.2749 1.6375,6.175 3.62412,12.2628 5.34912,18.4253 0.6875,2.5 1.93933,3.62392 4.61425,3.58642 7.8,-0.11662 15.59845,-0.11662 23.39845,0 3.18743,0 3.75116,-1.11247 2.76366,-3.9624 -2.425,-7.0875 -4.6626,-14.22517 -6.9751,-21.3501 -11.32492,-34.99977 -22.63031,-70.023456 -33.91356,-105.073237 -0.95,-2.962485 -2.49861,-4.388281 -5.686038,-4.238281 -4.0625,0.15 -8.12532,3.35e-4 -12.175298,-0.01221 -3.749976,0 -7.500016,0.2375 -11.25,0 -0.518745,-0.05 -1.001781,-0.06796 -1.452636,-0.05127 z m 11.92627,37.287601 c 2.699988,8.733273 5.404488,17.483333 8.112789,26.249993 1.425,4.61244 2.825487,9.2376 4.250487,13.8501 0.8125,2.62494 0.376175,4.20009 -2.861325,4.16259 -6.849956,-0.0875 -13.751495,0 -20.563963,0 -1.849988,0 -3.750189,-0.2625 -3.012695,-2.8125 4.099981,-13.82494 8.312518,-27.6234 12.5,-41.423333 z M 224.52873,111.21799 c -9.74993,0.2 -19.5867,0.0366 -29.41163,0.0366 -10.13742,0 -20.27487,0.075 -30.4248,0 -3.25,0 -4.92637,0.8379 -4.83887,4.4629 0.175,7.32493 0.125,14.66201 0,21.99951 0,2.93743 1.04912,4.22607 4.09912,4.22607 20.59153,-0.0666 41.18339,-0.0666 61.7749,0 3.0375,0 4.15128,-1.25137 4.11378,-4.21387 -0.1,-7.01242 -0.2,-14.04951 0,-21.06201 0.15,-4.025 -1.13758,-5.54921 -5.3125,-5.44921 z" />
</svg>
