<?xml version="1.0" encoding="UTF-8" standalone="no"?>
<!-- Generator: Adobe Illustrator 18.1.1, SVG Export Plug-In . SVG Version: 6.00 Build 0)  -->

<svg
   version="1.1"
   id="Ebene_1"
   x="0px"
   y="0px"
   viewBox="0 0 256.00001 255.99999"
   enable-background="new 0 0 595.3 841.9"
   xml:space="preserve"
   sodipodi:docname="hd_disabled.svg"
   width="256"
   height="256"
   inkscape:version="1.3.2 (091e20e, 2023-11-25, custom)"
   xmlns:inkscape="http://www.inkscape.org/namespaces/inkscape"
   xmlns:sodipodi="http://sodipodi.sourceforge.net/DTD/sodipodi-0.dtd"
   xmlns="http://www.w3.org/2000/svg"
   xmlns:svg="http://www.w3.org/2000/svg"><defs
   id="defs6" /><sodipodi:namedview
   id="namedview6"
   pagecolor="#ffffff"
   bordercolor="#000000"
   borderopacity="0.25"
   inkscape:showpageshadow="2"
   inkscape:pageopacity="0.0"
   inkscape:pagecheckerboard="0"
   inkscape:deskcolor="#d1d1d1"
   inkscape:zoom="1.1082076"
   inkscape:cx="297.32696"
   inkscape:cy="420.95001"
   inkscape:window-width="3440"
   inkscape:window-height="1369"
   inkscape:window-x="-8"
   inkscape:window-y="-8"
   inkscape:window-maximized="1"
   inkscape:current-layer="g4" />

<g
   id="g7"
   transform="matrix(0.59490574,0,0,0.59490574,12.023125,-124.80996)"
   style="fill:#e5e4e2;fill-opacity:1"><g
     id="g2"
     style="fill:#e5e4e2;fill-opacity:1">
	<path
   d="m 81.3,336.5 v 66.8 h 70.4 V 336.5 H 190 v 174 H 151.7 V 435.4 H 81.3 v 75.1 H 43 v -174 z"
   id="path1"
   style="fill:#e5e4e2;fill-opacity:1" />
	<path
   d="m 298.7,336.5 c 11.2,0 21.6,1.8 31.3,5.4 9.7,3.6 18,8.9 25.1,16.1 7.1,7.2 12.6,16.1 16.6,26.8 4,10.7 6,23.3 6,37.8 0,12.7 -1.6,24.4 -4.9,35.1 -3.3,10.7 -8.2,20 -14.7,27.8 -6.6,7.8 -14.8,13.9 -24.6,18.4 -9.8,4.5 -21.4,6.7 -34.7,6.7 h -75.1 v -174 h 75 z M 296,478.3 c 5.5,0 10.9,-0.9 16.1,-2.7 5.2,-1.8 9.8,-4.8 13.9,-8.9 4.1,-4.1 7.3,-9.5 9.7,-16.2 2.4,-6.7 3.7,-14.8 3.7,-24.4 0,-8.8 -0.9,-16.7 -2.6,-23.8 -1.7,-7.1 -4.5,-13.1 -8.4,-18.2 -3.9,-5 -9.1,-8.9 -15.5,-11.6 -6.4,-2.7 -14.3,-4 -23.8,-4 H 261.8 V 478.2 H 296 Z"
   id="path2"
   style="fill:#e5e4e2;fill-opacity:1" />
</g><g
     id="g6"
     style="fill:#e5e4e2;fill-opacity:1">
	<g
   id="g3"
   style="fill:#e5e4e2;fill-opacity:1">
		<line
   x1="32"
   y1="555.90002"
   x2="358"
   y2="293.89999"
   id="line2"
   style="fill:#e5e4e2;fill-opacity:1" />
	</g>
	<g
   id="g4"
   style="fill:#e5e4e2;fill-opacity:1">
		<path
   fill="#ffffff"
   d="m 32,580.9 c -7.3,0 -14.6,-3.2 -19.5,-9.3 -8.6,-10.8 -6.9,-26.5 3.8,-35.1 l 326,-262 c 10.8,-8.6 26.5,-6.9 35.1,3.8 8.6,10.8 6.9,26.5 -3.8,35.1 l -326,262 c -4.6,3.7 -10.1,5.5 -15.6,5.5 z"
   id="path3"
   style="fill:#120006;fill-opacity:1" />
	</g>
	<g
   id="g5"
   style="fill:#e5e4e2;fill-opacity:1">
		<path
   d="m 32,573.9 c -5.3,0 -10.5,-2.3 -14,-6.7 -6.2,-7.7 -5,-19.1 2.8,-25.3 l 326,-262 c 7.8,-6.2 19.1,-5 25.3,2.8 6.2,7.7 5,19.1 -2.8,25.3 L 43.3,570 C 40,572.6 36,573.9 32,573.9 Z"
   id="path4"
   style="fill:#e5e4e2;fill-opacity:1" />
	</g>
</g></g>
</svg>
