<?xml version="1.0" encoding="UTF-8" standalone="no"?>
<svg
   id="SVGRoot"
   width="256px"
   height="256px"
   version="1.1"
   viewBox="0 0 256 256"
   sodipodi:docname="history.svg"
   inkscape:version="1.3.2 (091e20e, 2023-11-25, custom)"
   xmlns:inkscape="http://www.inkscape.org/namespaces/inkscape"
   xmlns:sodipodi="http://sodipodi.sourceforge.net/DTD/sodipodi-0.dtd"
   xmlns="http://www.w3.org/2000/svg"
   xmlns:svg="http://www.w3.org/2000/svg">
  <defs
     id="defs1" />
  <sodipodi:namedview
     id="namedview1"
     pagecolor="#ffffff"
     bordercolor="#000000"
     borderopacity="0.25"
     inkscape:showpageshadow="2"
     inkscape:pageopacity="0.0"
     inkscape:pagecheckerboard="0"
     inkscape:deskcolor="#d1d1d1"
     inkscape:zoom="2.2910156"
     inkscape:cx="-268.87639"
     inkscape:cy="234.61211"
     inkscape:window-width="3440"
     inkscape:window-height="1369"
     inkscape:window-x="-8"
     inkscape:window-y="-8"
     inkscape:window-maximized="1"
     inkscape:current-layer="SVGRoot" />
  <g
     id="g3"
     transform="translate(3.0293175)" />
  <path
     id="path1"
     style="display:inline;fill:#e5e4e2;fill-opacity:1"
     d="M 40.564453 28.048828 C 28.10019 28.236703 24.949882 29.22699 20.451172 32.253906 C 16.168484 35.135197 12.585928 39.814103 10.957031 44.650391 C 10.177114 46.966382 10 62.499308 10 128.78711 L 10 210.08594 L 11.619141 213.59766 C 14.748129 220.38473 19.935833 225.19998 26.257812 227.18945 L 26.259766 227.18945 C 28.589757 227.9233 49.165305 228.07874 129.28906 227.9707 L 229.39844 227.83594 L 232.94922 226.08594 C 237.94489 223.62394 242.81832 218.40629 244.62109 213.58789 C 246.09362 209.65189 246.10469 209.07137 245.91797 143.76758 L 245.72852 77.916016 L 243.77148 74.957031 C 242.69421 73.329337 240.48099 71.116259 238.85352 70.039062 L 235.89453 68.080078 L 175.48828 67.724609 C 115.94241 67.374612 115.03837 67.348197 111.88867 65.875 C 107.7747 63.951006 107.8062 63.991105 95.990234 46.660156 C 86.863164 33.273298 85.642691 31.783409 82.4375 30.132812 L 78.916016 28.320312 L 56.529297 28.082031 C 49.909765 28.011861 44.719208 27.986198 40.564453 28.048828 z M 91.617188 106 C 91.858299 106 92.054688 109.99364 92.054688 114.875 L 92.054688 123.75195 L 186.13477 123.75195 L 186.13477 133.07031 L 186.13281 142.38867 L 56.232422 142.38867 L 63.716797 134.62305 C 67.833026 130.3518 75.695728 122.16542 81.189453 116.42969 C 86.683193 110.69407 91.376076 106 91.617188 106 z M 69.867188 155.70117 L 199.76758 155.70117 L 192.2832 163.47852 C 188.16699 167.75598 180.27847 175.94433 174.75 181.67383 L 174.75195 181.67383 C 169.22348 187.40341 164.5294 192.0918 164.32227 192.0918 C 164.11515 192.0918 163.94531 188.09814 163.94531 183.2168 L 163.94531 174.33984 L 69.867188 174.33984 L 69.867188 155.70117 z " />
</svg>
