<?xml version="1.0" encoding="UTF-8" standalone="no"?>
<!-- Created with Inkscape (http://www.inkscape.org/) -->

<svg
   width="256"
   height="256"
   viewBox="0 0 67.733334 67.733334"
   version="1.1"
   id="svg1"
   xml:space="preserve"
   inkscape:version="1.3.2 (091e20e, 2023-11-25, custom)"
   sodipodi:docname="information1.svg"
   xmlns:inkscape="http://www.inkscape.org/namespaces/inkscape"
   xmlns:sodipodi="http://sodipodi.sourceforge.net/DTD/sodipodi-0.dtd"
   xmlns="http://www.w3.org/2000/svg"
   xmlns:svg="http://www.w3.org/2000/svg"><sodipodi:namedview
     id="namedview1"
     pagecolor="#645f99"
     bordercolor="#000000"
     borderopacity="0.25"
     inkscape:showpageshadow="2"
     inkscape:pageopacity="0.0"
     inkscape:pagecheckerboard="0"
     inkscape:deskcolor="#6f6f6f"
     inkscape:document-units="mm"
     inkscape:zoom="2.0000001"
     inkscape:cx="185.25"
     inkscape:cy="270.99999"
     inkscape:window-width="1718"
     inkscape:window-height="1360"
     inkscape:window-x="1706"
     inkscape:window-y="0"
     inkscape:window-maximized="0"
     inkscape:current-layer="layer1" /><defs
     id="defs1" /><g
     inkscape:label="Laag 1"
     inkscape:groupmode="layer"
     id="layer1"
     transform="translate(0.77560575,1.0981081)"><path
       d="m 33.091062,3.1874816 c -16.336066,0 -29.5811416,13.2498184 -29.5811416,29.5810784 0,16.340804 13.2450756,29.581076 29.5811416,29.581076 16.336067,0 29.581139,-13.240272 29.581139,-29.581076 0,-16.33126 -13.245072,-29.5810784 -29.581139,-29.5810784 z m 0,13.1206394 c 2.766791,0 5.009709,2.242914 5.009709,5.009699 0,2.766785 -2.242918,5.009699 -5.009709,5.009699 -2.766791,0 -5.00971,-2.242914 -5.00971,-5.009699 0,-2.766785 2.242919,-5.009699 5.00971,-5.009699 z m 6.679612,30.296749 c 0,0.790462 -0.640885,1.431343 -1.431346,1.431343 H 27.842795 c -0.790461,0 -1.431346,-0.640881 -1.431346,-1.431343 v -2.862684 c 0,-0.790459 0.640885,-1.431343 1.431346,-1.431343 h 1.431345 v -7.633826 h -1.431345 c -0.790461,0 -1.431346,-0.640884 -1.431346,-1.431343 v -2.862685 c 0,-0.790459 0.640885,-1.431342 1.431346,-1.431342 h 7.633842 c 0.790461,0 1.431346,0.640883 1.431346,1.431342 v 11.927854 h 1.431345 c 0.790461,0 1.431346,0.640884 1.431346,1.431343 z"
       id="path1-3"
       style="fill:#e5e4e2;fill-opacity:1;stroke-width:0.119279" /></g></svg>
