<?xml version="1.0" encoding="UTF-8" standalone="no"?>
<svg
   version="1.1"
   viewBox="0 0 256 256"
   id="svg1"
   sodipodi:docname="lock_open.svg"
   inkscape:version="1.3.2 (091e20e, 2023-11-25, custom)"
   xmlns:inkscape="http://www.inkscape.org/namespaces/inkscape"
   xmlns:sodipodi="http://sodipodi.sourceforge.net/DTD/sodipodi-0.dtd"
   xmlns="http://www.w3.org/2000/svg"
   xmlns:svg="http://www.w3.org/2000/svg">
  <defs
     id="defs1" />
  <sodipodi:namedview
     id="namedview1"
     pagecolor="#ffffff"
     bordercolor="#000000"
     borderopacity="0.25"
     inkscape:showpageshadow="2"
     inkscape:pageopacity="0.0"
     inkscape:pagecheckerboard="0"
     inkscape:deskcolor="#d1d1d1"
     inkscape:zoom="4.5820312"
     inkscape:cx="127.89088"
     inkscape:cy="128"
     inkscape:window-width="3440"
     inkscape:window-height="1369"
     inkscape:window-x="-8"
     inkscape:window-y="-8"
     inkscape:window-maximized="1"
     inkscape:current-layer="svg1" />
  <title
     id="title1">lock_open</title>
  <path
     d="M189,11.12h-21.3c-24.23,0-43.88,17.9-43.88,40V97H46.58a23.52,23.52,0,0,0-23.46,23.45v101a23.52,23.52,0,0,0,23.46,23.45H168.49A23.52,23.52,0,0,0,192,221.43v-101A23.51,23.51,0,0,0,168.49,97H153.21V61.88c0-12.81,7.4-23.2,21.46-23.2H182c12.82,0,19.44,8.65,21.2,19.9a4.26,4.26,0,0,0,0,.61v59.29c0,4.37,9.74,7.9,16.85,7.9s12.85-3.53,12.85-7.9V51.11C232.88,29,213.23,11.12,189,11.12ZM107.54,193.68a22.75,22.75,0,1,1,22.75-22.75A22.76,22.76,0,0,1,107.54,193.68Z"
     id="path1"
     style="fill:#e5e4e2;fill-opacity:1" />
</svg>
