<?xml version="1.0" encoding="UTF-8" standalone="no"?>
<svg
   version="1.1"
   viewBox="0 0 256 256"
   id="svg1"
   sodipodi:docname="lock_closed.svg"
   inkscape:version="1.3.2 (091e20e, 2023-11-25, custom)"
   xmlns:inkscape="http://www.inkscape.org/namespaces/inkscape"
   xmlns:sodipodi="http://sodipodi.sourceforge.net/DTD/sodipodi-0.dtd"
   xmlns="http://www.w3.org/2000/svg"
   xmlns:svg="http://www.w3.org/2000/svg">
  <defs
     id="defs1" />
  <sodipodi:namedview
     id="namedview1"
     pagecolor="#ffffff"
     bordercolor="#000000"
     borderopacity="0.25"
     inkscape:showpageshadow="2"
     inkscape:pageopacity="0.0"
     inkscape:pagecheckerboard="0"
     inkscape:deskcolor="#d1d1d1"
     inkscape:zoom="4.5820312"
     inkscape:cx="127.89088"
     inkscape:cy="128"
     inkscape:window-width="3440"
     inkscape:window-height="1369"
     inkscape:window-x="-8"
     inkscape:window-y="-8"
     inkscape:window-maximized="1"
     inkscape:current-layer="svg1" />
  <title
     id="title1">lock_closed</title>
  <path
     d="M194,97.06h-6.43V51.19c0-22.08-19.64-40-43.88-40h-21.3c-24.24,0-43.88,17.91-43.88,40V97.06H72a23.52,23.52,0,0,0-23.45,23.45v101A23.52,23.52,0,0,0,72,245H194a23.52,23.52,0,0,0,23.45-23.46v-101A23.52,23.52,0,0,0,194,97.06ZM107.87,62c0-12.81,7.4-23.2,21.46-23.2h7.35c12.82,0,19.44,8.65,21.2,19.9a4.08,4.08,0,0,0,0,.61V97.06h-50ZM133,193.77A22.76,22.76,0,1,1,155.76,171,22.76,22.76,0,0,1,133,193.77Z"
     id="path1"
     style="fill:#e5e4e2;fill-opacity:1" />
</svg>
