<?xml version="1.0" encoding="UTF-8" standalone="no"?>
<!-- Created with Inkscape (http://www.inkscape.org/) -->

<svg
   width="256"
   height="256"
   viewBox="0 0 67.733332 67.733333"
   version="1.1"
   id="svg1"
   xml:space="preserve"
   inkscape:version="1.3.2 (091e20e, 2023-11-25, custom)"
   sodipodi:docname="servicenode_network.svg"
   xmlns:inkscape="http://www.inkscape.org/namespaces/inkscape"
   xmlns:sodipodi="http://sodipodi.sourceforge.net/DTD/sodipodi-0.dtd"
   xmlns="http://www.w3.org/2000/svg"
   xmlns:svg="http://www.w3.org/2000/svg"><sodipodi:namedview
     id="namedview1"
     pagecolor="#747474"
     bordercolor="#000000"
     borderopacity="0.25"
     inkscape:showpageshadow="2"
     inkscape:pageopacity="0.0"
     inkscape:pagecheckerboard="0"
     inkscape:deskcolor="#3e3e3e"
     inkscape:document-units="mm"
     inkscape:zoom="2.955623"
     inkscape:cx="100.31726"
     inkscape:cy="131.78271"
     inkscape:window-width="1920"
     inkscape:window-height="1129"
     inkscape:window-x="3432"
     inkscape:window-y="-8"
     inkscape:window-maximized="1"
     inkscape:current-layer="svg1" /><defs
     id="defs1" /><path
     id="path2"
     style="fill:#e5e4e2;fill-rule:evenodd;stroke-width:0.406633;paint-order:stroke fill markers"
     d="M 33.927946 1.4799827 A 6.8749504 6.8749504 0 0 0 27.052913 8.3550153 A 6.8749504 6.8749504 0 0 0 27.230163 9.824693 L 16.498519 16.020697 A 6.8749499 6.8749504 0 0 0 11.71018 14.07663 A 6.8749499 6.8749504 0 0 0 4.8351478 20.951146 A 6.8749499 6.8749504 0 0 0 11.71018 27.826178 A 6.8749499 6.8749504 0 0 0 16.062369 26.259349 L 27.058081 32.607798 A 6.8749504 6.8749504 0 0 0 31.752368 39.042548 L 31.752368 52.170429 A 6.8749504 6.8749504 0 0 0 29.016101 53.891771 L 18.402795 47.764496 A 6.8749499 6.8749504 0 0 0 18.585213 46.271047 A 6.8749499 6.8749504 0 0 0 11.71018 39.396015 A 6.8749499 6.8749504 0 0 0 4.8351478 46.271047 A 6.8749499 6.8749504 0 0 0 11.71018 53.14608 A 6.8749499 6.8749504 0 0 0 16.168306 51.499152 L 27.114408 57.819179 A 6.8749504 6.8749504 0 0 0 27.052913 58.677525 A 6.8749504 6.8749504 0 0 0 33.927946 65.552558 A 6.8749504 6.8749504 0 0 0 40.802978 58.677525 A 6.8749504 6.8749504 0 0 0 40.714095 57.585602 L 51.643143 51.27591 A 6.8749504 6.8749504 0 0 0 56.33588 53.14608 A 6.8749504 6.8749504 0 0 0 63.210913 46.271047 A 6.8749504 6.8749504 0 0 0 56.33588 39.396015 A 6.8749504 6.8749504 0 0 0 49.460848 46.271047 A 6.8749504 6.8749504 0 0 0 49.573502 47.445136 L 38.69458 53.726406 A 6.8749504 6.8749504 0 0 0 36.10404 52.158026 L 36.10404 39.042031 A 6.8749504 6.8749504 0 0 0 37.287431 38.513898 L 37.296215 38.519066 L 37.304484 38.504596 A 6.8749504 6.8749504 0 0 0 40.802978 32.534935 A 6.8749504 6.8749504 0 0 0 40.801945 32.495144 L 51.820394 26.133775 A 6.8749504 6.8749504 0 0 0 56.33588 27.826178 A 6.8749504 6.8749504 0 0 0 63.210913 20.951146 A 6.8749504 6.8749504 0 0 0 56.33588 14.07663 A 6.8749504 6.8749504 0 0 0 49.460848 20.951146 A 6.8749504 6.8749504 0 0 0 49.627763 22.374315 L 39.348287 28.309353 A 6.8749504 6.8749504 0 0 0 33.927946 25.660419 A 6.8749504 6.8749504 0 0 0 28.462646 28.393585 L 18.375923 22.570168 A 6.8749499 6.8749504 0 0 0 18.585213 20.951146 A 6.8749499 6.8749504 0 0 0 18.501497 19.889195 L 29.449666 13.568134 A 6.8749504 6.8749504 0 0 0 33.927946 15.229531 A 6.8749504 6.8749504 0 0 0 40.802978 8.3550153 A 6.8749504 6.8749504 0 0 0 33.927946 1.4799827 z "
     transform="translate(-0.15636361,0.35039652)" /></svg>
