<?xml version="1.0" encoding="UTF-8" standalone="no"?>
<!-- Created with Inkscape (http://www.inkscape.org/) -->

<svg
   width="256"
   height="256"
   viewBox="0 0 67.733334 67.733334"
   version="1.1"
   id="svg1"
   xml:space="preserve"
   inkscape:version="1.3.2 (091e20e, 2023-11-25, custom)"
   sodipodi:docname="stop1.svg"
   xmlns:inkscape="http://www.inkscape.org/namespaces/inkscape"
   xmlns:sodipodi="http://sodipodi.sourceforge.net/DTD/sodipodi-0.dtd"
   xmlns="http://www.w3.org/2000/svg"
   xmlns:svg="http://www.w3.org/2000/svg"><sodipodi:namedview
     id="namedview1"
     pagecolor="#645f99"
     bordercolor="#000000"
     borderopacity="0.25"
     inkscape:showpageshadow="2"
     inkscape:pageopacity="0.0"
     inkscape:pagecheckerboard="0"
     inkscape:deskcolor="#6f6f6f"
     inkscape:document-units="mm"
     inkscape:zoom="2.0000001"
     inkscape:cx="185.25"
     inkscape:cy="270.99999"
     inkscape:window-width="1718"
     inkscape:window-height="1360"
     inkscape:window-x="1706"
     inkscape:window-y="0"
     inkscape:window-maximized="0"
     inkscape:current-layer="layer1" /><defs
     id="defs1" /><g
     inkscape:label="Laag 1"
     inkscape:groupmode="layer"
     id="layer1"
     transform="translate(0.77560575,1.0981081)"><path
       id="path1"
       style="display:inline;fill:#e5e4e2;fill-opacity:1;stroke-width:0.119279"
       d="M 33.091061 3.1874184 C 16.749859 3.1874184 3.5099208 16.427358 3.5099208 32.768559 C 3.5099208 49.109758 16.749859 62.349699 33.091061 62.349699 C 49.432261 62.349699 62.672201 49.109758 62.672201 32.768559 C 62.672201 16.427358 49.432261 3.1874184 33.091061 3.1874184 z M 23.248251 19.268607 L 42.933871 19.268607 C 44.959888 19.268607 46.591012 20.916854 46.591012 22.963989 L 46.591012 42.573128 C 46.591012 44.620263 44.959888 46.26851 42.933871 46.26851 L 23.248251 46.26851 C 21.222234 46.26851 19.59111 44.620263 19.59111 42.573128 L 19.59111 22.963989 C 19.59111 20.916854 21.222234 19.268607 23.248251 19.268607 z " /></g></svg>
