<?xml version="1.0" encoding="UTF-8" standalone="no"?>
<svg
   version="1.1"
   viewBox="0 0 256 256"
   id="svg1"
   sodipodi:docname="synced.svg"
   inkscape:version="1.3.2 (091e20e, 2023-11-25, custom)"
   xmlns:inkscape="http://www.inkscape.org/namespaces/inkscape"
   xmlns:sodipodi="http://sodipodi.sourceforge.net/DTD/sodipodi-0.dtd"
   xmlns="http://www.w3.org/2000/svg"
   xmlns:svg="http://www.w3.org/2000/svg">
  <defs
     id="defs1" />
  <sodipodi:namedview
     id="namedview1"
     pagecolor="#ffffff"
     bordercolor="#000000"
     borderopacity="0.25"
     inkscape:showpageshadow="2"
     inkscape:pageopacity="0.0"
     inkscape:pagecheckerboard="0"
     inkscape:deskcolor="#d1d1d1"
     inkscape:zoom="4.5820312"
     inkscape:cx="127.89088"
     inkscape:cy="128"
     inkscape:window-width="3440"
     inkscape:window-height="1369"
     inkscape:window-x="-8"
     inkscape:window-y="-8"
     inkscape:window-maximized="1"
     inkscape:current-layer="svg1" />
  <title
     id="title1">synced</title>
  <path
     d="M246,128.65c-.06,65-52.88,117.36-118.13,117.39-64,0-117.49-53-117.12-118.41C11.11,63.2,63.81,10.85,128.7,10.8S246.65,64.84,246,128.65ZM71.88,105.94A17.62,17.62,0,0,0,59.94,110c-7.62,6.63-7.78,17.6-.13,25.33q20.11,20.33,40.43,40.47c8.85,8.83,18.17,8.85,27,.06q22.24-22.2,44.45-44.44c9.4-9.4,18.85-18.76,28.18-28.24a16.55,16.55,0,0,0,2.55-20.74c-5.77-9.45-18.3-10.74-26.53-2.56q-29.36,29.19-58.57,58.53c-3.5,3.5-3.52,3.49-7.1-.08-9.06-9-18.14-18.06-27.13-27.16A16.42,16.42,0,0,0,71.88,105.94Z"
     id="path1"
     style="fill:#e5e4e2;fill-opacity:1" />
</svg>
