<?xml version="1.0" encoding="UTF-8" standalone="no"?>
<svg
   version="1.1"
   viewBox="0 0 256 256"
   id="svg1"
   sodipodi:docname="transaction_conflicted.svg"
   inkscape:version="1.3.2 (091e20e, 2023-11-25, custom)"
   xmlns:inkscape="http://www.inkscape.org/namespaces/inkscape"
   xmlns:sodipodi="http://sodipodi.sourceforge.net/DTD/sodipodi-0.dtd"
   xmlns="http://www.w3.org/2000/svg"
   xmlns:svg="http://www.w3.org/2000/svg">
  <defs
     id="defs1" />
  <sodipodi:namedview
     id="namedview1"
     pagecolor="#ffffff"
     bordercolor="#000000"
     borderopacity="0.25"
     inkscape:showpageshadow="2"
     inkscape:pageopacity="0.0"
     inkscape:pagecheckerboard="0"
     inkscape:deskcolor="#d1d1d1"
     inkscape:zoom="4.5820312"
     inkscape:cx="127.89088"
     inkscape:cy="128"
     inkscape:window-width="3440"
     inkscape:window-height="1369"
     inkscape:window-x="-8"
     inkscape:window-y="-8"
     inkscape:window-maximized="1"
     inkscape:current-layer="svg1" />
  <title
     id="title1">transaction_conflicted</title>
  <path
     d="M238.81,208a22.48,22.48,0,0,1,0,31.7l-.12.12a22.48,22.48,0,0,1-31.7,0l-79.24-79.24L48.51,239.81a22.48,22.48,0,0,1-31.7,0l-.12-.12a22.48,22.48,0,0,1,0-31.7l79.24-79.24L16.69,49.51a22.48,22.48,0,0,1,0-31.7l.12-.12a22.48,22.48,0,0,1,31.7,0l79.24,79.24L207,17.69a22.48,22.48,0,0,1,31.7,0l.12.12a22.48,22.48,0,0,1,0,31.7l-79.24,79.24Z"
     id="path1"
     style="fill:#e5e4e2;fill-opacity:1" />
</svg>
