<?xml version="1.0" encoding="UTF-8" standalone="no"?>
<svg
   version="1.1"
   viewBox="0 0 256 256"
   id="svg2"
   sodipodi:docname="tx_inout.svg"
   inkscape:version="1.3.2 (091e20e, 2023-11-25, custom)"
   xmlns:inkscape="http://www.inkscape.org/namespaces/inkscape"
   xmlns:sodipodi="http://sodipodi.sourceforge.net/DTD/sodipodi-0.dtd"
   xmlns="http://www.w3.org/2000/svg"
   xmlns:svg="http://www.w3.org/2000/svg"
   xmlns:rdf="http://www.w3.org/1999/02/22-rdf-syntax-ns#"
   xmlns:cc="http://creativecommons.org/ns#"
   xmlns:dc="http://purl.org/dc/elements/1.1/">
  <defs
     id="defs2" />
  <sodipodi:namedview
     id="namedview2"
     pagecolor="#ffffff"
     bordercolor="#000000"
     borderopacity="0.25"
     inkscape:showpageshadow="2"
     inkscape:pageopacity="0.0"
     inkscape:pagecheckerboard="0"
     inkscape:deskcolor="#d1d1d1"
     inkscape:zoom="4.5820312"
     inkscape:cx="127.89088"
     inkscape:cy="128"
     inkscape:window-width="3440"
     inkscape:window-height="1369"
     inkscape:window-x="-8"
     inkscape:window-y="-8"
     inkscape:window-maximized="1"
     inkscape:current-layer="svg2" />
  <title
     id="title1">tx_output</title>
  <path
     d="M192.58,162.24c3.87-3.61,7.28-6.74,10.63-9.93,5.59-5.33,11-10.78,16.72-16,6.73-6.21,15-6,21.25.19s6.51,15,.14,21.55c-6,6.15-12.3,12-18.49,17.92q-16.34,15.69-32.68,31.38c-1.49,1.43-3,2.84-4.56,4.19-6,5.19-12.49,5.38-18-.17-18.05-18.07-36.3-35.94-53.81-54.53-5.29-5.61-5-14.34.26-20.21,5.39-6,13.84-7.16,20.34-2.61,3.77,2.64,6.61,6.27,9.79,9.54,5.36,5.53,10.65,11.13,16,16.71,1.11-.65.66-1.61.68-2.37.06-4,0-8,.07-12.06.23-25.86.43-90.93.71-116.79.15-13.19,11.37-20.89,22.94-15.78,5.21,2.31,8.42,6.5,8.46,12.16.09,18,.13,75.29-.32,93.32C192.3,133,192.58,147.18,192.58,162.24Z"
     id="path1"
     style="fill:#e5e4e2;fill-opacity:1" />
  <path
     d="M61.2,96.39c-4.05,3.78-8.1,7.38-12,11.18s-7.63,8.05-11.54,12c-6.72,6.75-15.93,7-22.41.61s-6.54-15.67.08-22.41C32.6,80.22,50,62.85,67.12,45.23c7.43-7.64,15-4.75,20,.05Q114,71,140.85,96.73c5.49,5.26,7.08,11.58,4.42,17.73A16,16,0,0,1,130,124.14c-4.54-.23-7.94-2.7-11.05-5.69q-11.5-11.1-23-22.19c-.76-.73-1.34-1.71-2.56-2-.85,1.18-.43,2.52-.42,3.74.21,30.56.49,101.15.69,131.7.05,7.65-4.19,13.11-11.2,14.86C75,246.41,67.5,243.28,64,236.8a18.59,18.59,0,0,1-1.94-7.53c-.07-1,0-2,0-2.93-.24-29.14-.49-98.32-.74-127.46C61.32,98,61.24,97.16,61.2,96.39Z"
     id="path2"
     style="fill:#e5e4e2;fill-opacity:1" />
  <metadata
     id="metadata2">
    <rdf:RDF>
      <cc:Work
         rdf:about="">
        <dc:title>tx_inout</dc:title>
      </cc:Work>
    </rdf:RDF>
  </metadata>
</svg>
