<?xml version="1.0" encoding="UTF-8" standalone="no"?>
<svg
   version="1.1"
   viewBox="0 0 256 256"
   id="svg1"
   sodipodi:docname="tx_input.svg"
   inkscape:version="1.3.2 (091e20e, 2023-11-25, custom)"
   xmlns:inkscape="http://www.inkscape.org/namespaces/inkscape"
   xmlns:sodipodi="http://sodipodi.sourceforge.net/DTD/sodipodi-0.dtd"
   xmlns="http://www.w3.org/2000/svg"
   xmlns:svg="http://www.w3.org/2000/svg">
  <defs
     id="defs1" />
  <sodipodi:namedview
     id="namedview1"
     pagecolor="#ffffff"
     bordercolor="#000000"
     borderopacity="0.25"
     inkscape:showpageshadow="2"
     inkscape:pageopacity="0.0"
     inkscape:pagecheckerboard="0"
     inkscape:deskcolor="#d1d1d1"
     inkscape:zoom="4.5820312"
     inkscape:cx="127.89088"
     inkscape:cy="128"
     inkscape:window-width="3440"
     inkscape:window-height="1369"
     inkscape:window-x="-8"
     inkscape:window-y="-8"
     inkscape:window-maximized="1"
     inkscape:current-layer="svg1" />
  <title
     id="title1">tx_input</title>
  <path
     d="M149,169.68c5.54-5.18,10.43-9.67,15.24-14.25,8-7.63,15.84-15.45,24-23,9.65-8.9,21.52-8.66,30.47.28s9.34,21.48.2,30.89c-8.57,8.82-17.64,17.16-26.51,25.69q-23.42,22.51-46.85,45c-2.14,2-4.31,4.07-6.54,6-8.56,7.44-17.91,7.71-25.86-.25-25.88-25.9-52-51.53-77.15-78.18-7.58-8-7.16-20.56.38-29,7.72-8.63,19.83-10.27,29.16-3.74,5.4,3.78,9.48,9,14,13.68,7.69,7.93,15.28,16,22.93,24,1.59-.93,1-2.31,1-3.4.09-5.76,0-11.53.1-17.3q.49-55.62,1-111.23C104.75,16,120.84,5,137.42,12.29c7.48,3.31,12.08,9.32,12.13,17.44.14,25.86.19,51.72-.45,77.58C148.57,127.68,149,148.08,149,169.68Z"
     id="path1"
     style="fill:#e5e4e2;fill-opacity:1" />
</svg>
