<?xml version="1.0" encoding="UTF-8" standalone="no"?>
<svg
   version="1.1"
   viewBox="0 0 256 256"
   id="svg8"
   sodipodi:docname="tx_mix.svg"
   inkscape:version="1.3.2 (091e20e, 2023-11-25, custom)"
   xmlns:inkscape="http://www.inkscape.org/namespaces/inkscape"
   xmlns:sodipodi="http://sodipodi.sourceforge.net/DTD/sodipodi-0.dtd"
   xmlns="http://www.w3.org/2000/svg"
   xmlns:svg="http://www.w3.org/2000/svg"
   xmlns:rdf="http://www.w3.org/1999/02/22-rdf-syntax-ns#"
   xmlns:cc="http://creativecommons.org/ns#"
   xmlns:dc="http://purl.org/dc/elements/1.1/">
  <defs
     id="defs8" />
  <sodipodi:namedview
     id="namedview8"
     pagecolor="#ffffff"
     bordercolor="#000000"
     borderopacity="0.25"
     inkscape:showpageshadow="2"
     inkscape:pageopacity="0.0"
     inkscape:pagecheckerboard="0"
     inkscape:deskcolor="#d1d1d1"
     inkscape:zoom="2.2910156"
     inkscape:cx="-3.4919011"
     inkscape:cy="142.07673"
     inkscape:window-width="3440"
     inkscape:window-height="1369"
     inkscape:window-x="-8"
     inkscape:window-y="-8"
     inkscape:window-maximized="1"
     inkscape:current-layer="svg8" />
  <title
     id="title1">tx_mined</title>
  <metadata
     id="metadata8">
    <rdf:RDF>
      <cc:Work
         rdf:about="">
        <dc:title>tx_mined</dc:title>
      </cc:Work>
    </rdf:RDF>
  </metadata>
  <g
     id="g9"
     transform="translate(0.00374008,36.755657)">
    <path
       d="m 186.57,110.10462 h 7.25 c 8.05,-0.08 11.94,-4.36 11.55,-12.630008 -0.48,-10.41 -1,-20.82 -1.34,-31.23 -0.2,-5.92 -0.07,-5.88 5.8,-6 2.41,0 4.82,-0.24 7.22,-0.47 a 8.75,8.75 0 0 0 7.85,-5.78 c 1.33,-3.5 -0.11,-6.49 -2.47,-9.06 -6.27,-6.85 -12.58,-13.65 -18.87,-20.48 -2.84,-3.079996 -5.61,-6.249996 -8.54,-9.249996 -5.22,-5.3199996 -12.43,-5.2199996 -17.51,0.24 Q 164,30.004612 150.57,44.604612 c -2.46,2.66 -4.14,5.62 -2.83,9.33 1.31,3.71 4.44,5.29 8.22,5.87 a 43.51,43.51 0 0 0 8.75,0.46 c 2.91,-0.13 4.16,1 4,4 -0.42,11.18 -0.56,22.37 -1.09,33.54 -0.38,8.090008 3.2,12.220008 11.28,12.300008 2.58,0.02 5.1,0 7.67,0 z"
       id="path1"
       style="fill:#e5e4e2;fill-opacity:1" />
    <path
       d="m 69.9,86.89 c 13.45,-0.13 26.66,1.24 39.35,6 a 26.69,26.69 0 0 1 7.29,4.11 8.57,8.57 0 0 1 3.51,7.26 c -0.09,3.43 -0.18,6.88 0,10.3 0.27,4.35 -1.71,7.28 -5.23,9.45 -6.18,3.81 -13.06,5.69 -20.1,6.84 -20.3,3.32 -40.51,3.32 -60.46,-2.42 a 49.14,49.14 0 0 1 -5,-1.77 C 20.72,123.18 19,120.66 19,111.53 v -3.43 c 0,-8.9 1.92,-11.75 10.43,-15 12.16,-4.67 24.85,-6.25 37.8,-6.19 z"
       id="path2"
       style="fill:#e5e4e2;fill-opacity:1" />
    <path
       d="m 187.49,169.56 c -14.17,0.18 -26.9,-1.08 -39.17,-5.45 a 47.35,47.35 0 0 1 -5.93,-2.6 c -4.57,-2.36 -7.21,-5.86 -6.61,-11.34 a 30.26,30.26 0 0 0 0,-6.86 c -0.79,-6.42 2.71,-10 7.94,-12.48 a 73.78,73.78 0 0 1 23.49,-6.28 147.83,147.83 0 0 1 46.32,1.39 c 6.36,1.26 12.63,3 18.22,6.53 3.51,2.22 5.45,5.17 5.14,9.49 a 42,42 0 0 0 0,8 c 0.73,6.09 -2.51,9.56 -7.44,12 -7.86,3.91 -16.35,5.54 -24.95,6.68 a 99.21,99.21 0 0 1 -17.01,0.92 z"
       id="path3"
       style="fill:#e5e4e2;fill-opacity:1" />
    <path
       d="m 187.58,208.5 c -13.16,0.16 -25,-1 -36.54,-4.56 -1.09,-0.34 -2.18,-0.71 -3.24,-1.13 -10.6,-4.15 -12,-6.17 -12,-17.4 0,-9 0,-9.07 8.4,-5.94 a 96.52,96.52 0 0 0 28.69,5.68 c 20.65,1.1 41.23,0.76 60.69,-7.76 2.42,-1.06 3.27,-0.34 3.25,2.13 v 12.2 c 0,0 -2.72,6.39 -5.94,8.21 -8.48,4.8 -17.83,6.52 -27.33,7.75 a 108.7,108.7 0 0 1 -15.98,0.82 z"
       id="path6"
       style="fill:#e5e4e2;fill-opacity:1" />
    <path
       d="m 70.41,171.86 c -12.87,0.16 -24.72,-1 -36.24,-4.58 -1.33,-0.41 -2.65,-0.89 -3.94,-1.42 -10,-4.2 -11.23,-6 -11.23,-16.78 0,-9.34 0,-9.38 8.47,-6.23 a 95.56,95.56 0 0 0 27.94,5.63 c 17.42,1 34.84,1 51.79,-4.18 a 85.42,85.42 0 0 0 9.29,-3.42 c 2.39,-1 3.6,-0.84 3.55,2.08 -0.06,4.07 0,8.14 0,12.21 0,4.07 -2.57,6.2 -5.67,8 -8.56,4.93 -18,6.66 -27.67,7.92 a 122.61,122.61 0 0 1 -16.29,0.77 z"
       id="path7"
       style="fill:#e5e4e2;fill-opacity:1" />
    <path
       d="m 70.88,208.5 c -13.19,0.16 -25.16,-1 -36.81,-4.61 -1.21,-0.38 -2.41,-0.81 -3.59,-1.29 C 20.25,198.43 19,196.6 19,185.6 v -6.48 c 0,0 0.85,-2.72 2.88,-1.9 26.05,10.51 52.82,10.12 79.86,5.14 a 62.93,62.93 0 0 0 14.81,-4.89 c 2.54,-1.17 3.51,-0.54 3.46,2.2 -0.06,3.43 -0.18,6.88 0,10.3 0.29,4.69 -2,7.67 -5.82,9.86 -8.48,4.81 -17.82,6.56 -27.31,7.83 a 111.89,111.89 0 0 1 -16,0.84 z"
       id="path8"
       style="fill:#e5e4e2;fill-opacity:1" />
    <path
       d="m 69.761654,-26.029694 h 7.25 c 8.05,0.08 11.94,4.36 11.55,12.630004 -0.48,10.4100003 -1,20.8200003 -1.34,31.23 -0.2,5.92 -0.07,5.88 5.8,6 2.41,0 4.82,0.24 7.219996,0.47 a 8.75,8.75 0 0 1 7.85,5.78 c 1.33,3.5 -0.11,6.49 -2.47,9.06 -6.269998,6.85 -12.579996,13.65 -18.869996,20.48 -2.84,3.08 -5.61,6.25 -8.54,9.25 -5.22,5.319999 -12.43,5.219999 -17.51,-0.24 q -13.51,-14.56 -26.94,-29.16 c -2.46,-2.66 -4.14,-5.62 -2.83,-9.33 1.31,-3.71 4.44,-5.29 8.22,-5.87 a 43.51,43.51 0 0 1 8.75,-0.46 c 2.91,0.13 4.16,-1 4,-4 -0.42,-11.1799997 -0.56,-22.3699997 -1.09,-33.54 -0.38,-8.090004 3.2,-12.220004 11.28,-12.300004 2.58,-0.02 5.1,0 7.67,0 z"
       id="path9"
       style="fill:#e5e4e2;fill-opacity:1" />
  </g>
</svg>
