<?xml version="1.0" encoding="UTF-8" standalone="no"?>
<svg
   version="1.1"
   viewBox="0 0 256 256"
   id="svg1"
   sodipodi:docname="tx_output.svg"
   inkscape:version="1.3.2 (091e20e, 2023-11-25, custom)"
   xmlns:inkscape="http://www.inkscape.org/namespaces/inkscape"
   xmlns:sodipodi="http://sodipodi.sourceforge.net/DTD/sodipodi-0.dtd"
   xmlns="http://www.w3.org/2000/svg"
   xmlns:svg="http://www.w3.org/2000/svg"
   xmlns:rdf="http://www.w3.org/1999/02/22-rdf-syntax-ns#"
   xmlns:cc="http://creativecommons.org/ns#"
   xmlns:dc="http://purl.org/dc/elements/1.1/">
  <defs
     id="defs1" />
  <sodipodi:namedview
     id="namedview1"
     pagecolor="#ffffff"
     bordercolor="#000000"
     borderopacity="0.25"
     inkscape:showpageshadow="2"
     inkscape:pageopacity="0.0"
     inkscape:pagecheckerboard="0"
     inkscape:deskcolor="#d1d1d1"
     inkscape:zoom="4.5820312"
     inkscape:cx="127.89088"
     inkscape:cy="128"
     inkscape:window-width="3440"
     inkscape:window-height="1369"
     inkscape:window-x="-8"
     inkscape:window-y="-8"
     inkscape:window-maximized="1"
     inkscape:current-layer="svg1" />
  <title
     id="title1">tx_output</title>
  <path
     d="M103.22,91.17c-5.82,5.42-11.62,10.58-17.14,16s-10.94,11.54-16.55,17.18c-9.63,9.68-22.84,10-32.13.87s-9.37-22.46.12-32.12C62.21,68,87.14,43.08,111.7,17.82c10.65-10.95,21.56-6.81,28.73.07q38.49,36.9,77,73.77c7.87,7.54,10.15,16.6,6.33,25.42A22.87,22.87,0,0,1,201.84,131c-6.51-.33-11.38-3.87-15.84-8.16Q169.5,106.9,153,91c-1.09-1-1.93-2.45-3.67-2.9-1.23,1.69-.62,3.61-.61,5.37q.47,65.72,1,131.42c.07,11-6,18.79-16.06,21.3-10.72,2.68-21.4-1.8-26.36-11.1a26.42,26.42,0,0,1-2.78-10.79c-.1-1.4-.05-2.81-.06-4.21q-.53-62.67-1.07-125.34C103.38,93.51,103.27,92.28,103.22,91.17Z"
     id="path1"
     style="fill:#e5e4e2;fill-opacity:1" />
  <metadata
     id="metadata1">
    <rdf:RDF>
      <cc:Work
         rdf:about="">
        <dc:title>tx_output</dc:title>
      </cc:Work>
    </rdf:RDF>
  </metadata>
</svg>
