<?xml version="1.0" encoding="UTF-8" standalone="no"?>
<svg
   version="1.1"
   viewBox="0 0 256 256"
   id="svg1"
   sodipodi:docname="tyrianpurple_clear.svg"
   inkscape:version="1.3.2 (091e20e, 2023-11-25, custom)"
   xmlns:inkscape="http://www.inkscape.org/namespaces/inkscape"
   xmlns:sodipodi="http://sodipodi.sourceforge.net/DTD/sodipodi-0.dtd"
   xmlns="http://www.w3.org/2000/svg"
   xmlns:svg="http://www.w3.org/2000/svg">
  <defs
     id="defs1" />
  <sodipodi:namedview
     id="namedview1"
     pagecolor="#ffffff"
     bordercolor="#000000"
     borderopacity="0.25"
     inkscape:showpageshadow="2"
     inkscape:pageopacity="0.0"
     inkscape:pagecheckerboard="0"
     inkscape:deskcolor="#d1d1d1"
     inkscape:zoom="4.5820312"
     inkscape:cx="127.89088"
     inkscape:cy="128"
     inkscape:window-width="3440"
     inkscape:window-height="1369"
     inkscape:window-x="-8"
     inkscape:window-y="-8"
     inkscape:window-maximized="1"
     inkscape:current-layer="svg1" />
  <title
     id="title1">quit</title>
  <path
     d="m 190.70596,173.67463 a 12.742674,12.742674 0 0 1 0,17.96898 l -0.068,0.068 a 12.742674,12.742674 0 0 1 -17.96898,0 l -44.91679,-44.91679 -44.916798,44.91112 a 12.742674,12.742674 0 0 1 -17.968985,0 l -0.06802,-0.068 a 12.742674,12.742674 0 0 1 0,-17.96898 L 109.71516,128.75217 64.798366,83.835372 a 12.742674,12.742674 0 0 1 0,-17.968985 l 0.06802,-0.06802 a 12.742674,12.742674 0 0 1 17.968985,0 l 44.916799,44.916793 44.92246,-44.916793 a 12.742674,12.742674 0 0 1 17.96898,0 l 0.068,0.06802 a 12.742674,12.742674 0 0 1 0,17.968985 l -44.91679,44.916798 z"
     id="path1"
     style="fill:#66023c;fill-opacity:1;stroke-width:0.566845" />
</svg>
