/* XPM */
static char *result[] = {
/* columns rows colors chars-per-pixel */
"16 16 137 2 ",
"   c #020202",
".  c gray1",
"X  c gray2",
"o  c #070707",
"O  c #090907",
"+  c #141413",
"@  c #151514",
"#  c #151515",
"$  c #312F2F",
"%  c #510732",
"&  c #5A0336",
"*  c #5C0336",
"=  c #5D0336",
"-  c #5C0437",
";  c #5D0437",
":  c #5E0339",
">  c #5F0639",
",  c #590938",
"<  c #580C38",
"1  c #590E38",
"2  c #5B0C3A",
"3  c #5C0C39",
"4  c #5F113E",
"5  c #5D123E",
"6  c #5A1B3F",
"7  c #610239",
"8  c #62023A",
"9  c #63023A",
"0  c #64023B",
"q  c #65023B",
"w  c #610439",
"e  c #610539",
"r  c #60073B",
"t  c #65023C",
"y  c #66023C",
"u  c #61093B",
"i  c #640C3E",
"p  c #63113F",
"a  c #621240",
"s  c #621342",
"d  c #601741",
"f  c #631543",
"g  c #621642",
"h  c #661543",
"j  c #651744",
"k  c #661745",
"l  c #601C43",
"z  c #671A47",
"x  c #671D48",
"c  c #5F2245",
"v  c #5E2B47",
"b  c #642247",
"n  c #67274B",
"m  c #612848",
"M  c #652E4F",
"N  c #6C284F",
"B  c #6D294F",
"V  c #6E2751",
"C  c #6E2952",
"Z  c #702751",
"A  c #6E3053",
"S  c #6A3F56",
"D  c #733658",
"F  c #763459",
"G  c #75355A",
"H  c #76365B",
"J  c #733D5C",
"K  c #743D5D",
"L  c #793A5E",
"P  c #783B5E",
"I  c #7A3F62",
"U  c #424141",
"Y  c #6C4058",
"T  c #6C405A",
"R  c #6D415B",
"E  c #6F425B",
"W  c #74405D",
"Q  c #75405E",
"!  c #7C4665",
"~  c #7E4767",
"^  c #7C4C68",
"/  c #7E4D69",
"(  c #765065",
")  c #7B5268",
"_  c #7B5469",
"`  c #7B556A",
"'  c #834F6C",
"]  c #85556F",
"[  c #875470",
"{  c #815870",
"}  c #875871",
"|  c #835D72",
" . c #815F72",
".. c #865D74",
"X. c #846576",
"o. c #866677",
"O. c #836A77",
"+. c #876879",
"@. c #876F7C",
"#. c #8A6B7B",
"$. c #936A7F",
"%. c #8B707E",
"&. c #8A7180",
"*. c #907683",
"=. c #977085",
"-. c #917785",
";. c #9B778A",
":. c #947C88",
">. c #99818E",
",. c #99828F",
"<. c #9F8C96",
"1. c #9F8C97",
"2. c #9F9198",
"3. c #A18494",
"4. c #A68C9A",
"5. c #A68D9A",
"6. c #A6979E",
"7. c #A9929D",
"8. c #AC939F",
"9. c #AD97A2",
"0. c #AE98A3",
"q. c #AA9FA3",
"w. c #AB9EA4",
"e. c #ABA0A3",
"r. c #B9AFB3",
"t. c #C3B6BB",
"y. c #C2B8BC",
"u. c #C3B8BC",
"i. c #C9C1C4",
"p. c #D1CACB",
"a. c #D1CDCD",
"s. c #D5D2D1",
"d. c #D7D4D4",
"f. c #D9D5D5",
"g. c #DEDCDB",
"h. c #E5E4E2",
"j. c None",
/* pixels */
"j.j.j.o $ $ $ $ $ $ $ $ $ $ $ . ",
"j.j.O w.h i c 6.2.v 1 3 3 3 W # ",
"j.o q.r y 0 +.T * y.8.- y y C # ",
"  e.u y y > ` l y p a y y y C # ",
"+ I y y y < | Y q y y y y y Z # ",
"@ F y y 7 E %.&./ s q y y y Z # ",
"@ F y y _  .@.-.o.( & y y y V # ",
"# F y f X.' H $.3.[ S y y y V # ",
"# F y 2 = 5 d <.5.,.m L } P A # ",
"# F ] 7.>.J % a.f.i.6 k R s.O.# ",
"# Q #.:.~ j : x , ; y B 1.d.) # ",
"# K 0.h.r.{ *.8 y y y b ..u.N # ",
"# G 9 ! g.p.=.n t y y M 9.4 ;.# ",
"# G y y > z D e y y y q w 4.h.# ",
"# ^ 3 3 3 3 3 3 3 3 3 g t.h.h.# ",
"X U U U U U U U U U U U U U U X "
};
