/* XPM */
static char *result[] = {
/* columns rows colors chars-per-pixel */
"64 64 128 2 ",
"   c #000000",
".  c #181818",
"X  c #230416",
"o  c #200E17",
"O  c #270619",
"+  c #29061B",
"@  c #240B1A",
"#  c #2A0B1D",
"$  c #31041E",
"%  c #201018",
"&  c #370220",
"*  c #3D0525",
"=  c #330C23",
"-  c #3B0A26",
";  c #3F0728",
":  c #3D0C29",
">  c #2B1521",
",  c #2A1C23",
"<  c #351226",
"1  c #381127",
"2  c #371729",
"3  c #3C132B",
"4  c #3B1A2D",
"5  c #3D1D30",
"6  c #252524",
"7  c #2B2B2B",
"8  c #35242D",
"9  c #3A222F",
"0  c #30302F",
"q  c #3C2331",
"w  c #3F2C37",
"e  c #343434",
"r  c #3F3F3E",
"t  c #400427",
"y  c #440429",
"u  c #4B022D",
"i  c #51022F",
"p  c #41172F",
"a  c #42182F",
"s  c #540232",
"d  c #5A0235",
"f  c #5E0238",
"g  c #421C32",
"h  c #66023C",
"j  c #432235",
"k  c #412836",
"l  c #462638",
"z  c #48273A",
"x  c #452C3A",
"c  c #492A3B",
"v  c #44333B",
"b  c #4B313F",
"n  c #4D3442",
"m  c #4D3944",
"M  c #513645",
"N  c #513B46",
"B  c #533D49",
"V  c #444444",
"C  c #4D4B4B",
"Z  c #55434D",
"A  c #58454F",
"S  c #564750",
"D  c #594751",
"F  c #5D4D55",
"G  c #5F4E58",
"H  c #525251",
"J  c #585857",
"K  c #604F58",
"L  c #61535A",
"P  c #66595F",
"I  c #675A61",
"U  c #6B5D64",
"Y  c #626160",
"T  c #6D6166",
"R  c #6F646A",
"E  c #71656B",
"W  c #746A6E",
"Q  c #71706F",
"!  c #776C71",
"~  c #7A6E74",
"^  c #7B7276",
"/  c #787877",
"(  c #7D7479",
")  c #7D7D7B",
"_  c #80767B",
"`  c #827A7D",
"'  c #857E80",
"]  c #897E83",
"[  c #818080",
"{  c #8A8587",
"}  c #8D8788",
"|  c #8D8A8B",
" . c #938C8F",
".. c #958E90",
"X. c #969293",
"o. c #999395",
"O. c #9A9897",
"+. c #9C9598",
"@. c #9E9B9B",
"#. c #A19D9D",
"$. c #A5A1A1",
"%. c #AAA5A6",
"&. c #AAA8A7",
"*. c #ABA7A8",
"=. c #ACAAAA",
"-. c #B1AFAF",
";. c #B2B1AF",
":. c #B1AFB0",
">. c #B5B2B2",
",. c #B8B6B5",
"<. c #BAB9B7",
"1. c #BDBBBA",
"2. c #C1BEBD",
"3. c #C1C0BF",
"4. c #C5C4C3",
"5. c #C8C7C6",
"6. c #CAC9C7",
"7. c #CDCCCA",
"8. c #D0CFCE",
"9. c #D1D0CE",
"0. c #D5D4D2",
"q. c #D8D7D6",
"w. c #DAD9D7",
"e. c #DEDDDB",
"r. c #E0DFDD",
"t. c #E2E1DF",
"y. c #E5E4E2",
"u. c None",
/* pixels */
"u.u.u.u.u.u.u.u.u.u.u.u.u.                                                                                                      ",
"u.u.u.u.u.u.u.u.u.u.u.u.                                                                                                        ",
"u.u.u.u.u.u.u.u.u.u.u.        7 Q / / / / ) | | | | | | | [ [ [ [ [ [ [ [ [ [ [ [ [ [ [ [ [ [ [ [ [ [ [ [ [ [ [ [ [ [ [ )       ",
"u.u.u.u.u.u.u.u.u.u.        Y y.y.y.y.y.y.y.y.y.y.y.y.y.y.y.y.y.y.y.y.y.y.y.y.y.y.y.y.y.y.y.y.y.y.y.y.y.y.y.y.y.y.y.y.y.y.      ",
"u.u.u.u.u.u.u.u.u.        J y.y.y.X.F A D D D A S D D D ` y.y.( 7.y.-.G G L G L F G J L L L L L G L L L G L L L L K } y.y.      ",
"u.u.u.u.u.u.u.u.        H y.y.t.n s h h h h h h h h d q 8.y.] o w.y.w.2 h h h h h h h h h h h h h h h h h h h h h h n y.y.      ",
"u.u.u.u.u.u.u.        C y.y.y.x d h h h h h h h h h 2 t.y.y.Z - 5.y.y.` s - - u h h h h h h h h h h h h h h h h h h c y.y.      ",
"u.u.u.u.u.u.        V y.y.y.n d h h h h h h h h h s y %.y.y.8.4 @ L 0.| # y.t.4.w h h h h h h h h h h h h h h h h h n y.y.      ",
"u.u.u.u.u.        r y.y.y.N d h h h h h h h h h h w ; : _ w.0.| # d : < D y.y.y.e.2 h h h h h h h h h h h h h h h h z y.y.      ",
"u.u.u.u.        e y.y.y.Z s h h h h h h h h h h ; 6.U u s t t d h h h d ~ y.y.y.y.w.k u h h h h h h h h h h h h h h n y.y.      ",
"u.u.u.        e t.y.y.F s h h h h h h h h h h h B y.y.:.^ L q s h h h h I y.y.y.y.y.y.#.B # h h h h h h h h h h h h c y.y.      ",
"u.u.        7 t.y.y.P s h h h h h h h h h h h u  .y.y.y.y.y.B h h h h h k y.y.y.y.y.t.1.g i h h h h h h h h h h h h c y.y.      ",
"u.        6 r.y.y.U s h h h h h h h h h h h h h u j N G L U : h h h h h i S t.y.y.r.F t h h h h h h h h h h h h h h z y.y.      ",
"        6 r.y.y.E u h h h h h h h h h h h h h * - u s h h h h h h h h h h f 1 _ } 1 h h h h h h h h h h h h h h h h n y.y.      ",
"      . r.y.y.^ u h h h h h h h h h h h h h h Z r.4.} L N z u h h h h h h h h d s h h h h h h h h h h h h h h h h h n y.y.      ",
"      =.y.y.` u h h h h h h h h h h h h h h h ! y.y.y.y.y.y.5 h h h h h h h h h h h h h h h h h h h h h h h h h h h n y.y.      ",
"      y.y.4.; h h h h h h h h h h h h h h h s :.! : 3 g j F l h h h h h h h h h h h h h h h h h h h h h h h h h h h n y.y.      ",
"      y.y.R h h h h h h h h h h h h h h h h ; I y y : * u u X h h h h h h h h h h h h h h h h h h h h h h h h h h h c y.y.      ",
"      y.y.F h h h h h h h h h h h h h h h h * + ~ 0.y.y.7.@.S u h h h h h h h h h h h h h h h h h h h h h h h h h h n y.y.      ",
"      y.y.F h h h h h h h h h h h h h h h h t *.y.6.0.e.y.y.y.U s h h h h h h h h h h h h h h h h h h h h h h h h h z y.y.      ",
"      y.y.F h h h h h h h h h h h h h h h u P Z : y y * * : p j + h h h h h h h h h h h h h h h h h h h h h h h h h c y.y.      ",
"      y.y.F h h h h h h h h h h h h h h h y $ 3 L L n l 3 p n Z z : u h h h h h h h h h h h h h h h h h h h h h h h c y.y.      ",
"      y.y.F h h h h h h h h h h h h h h u j ..y.y.y.y.y.y.y.y.y.y.t.=.K j ; s h h h h h h h h h h h h h h h h h h h c y.y.      ",
"      y.y.F h h h h h h h h h h h h u k $.y.y.y.y.y.y.y.y.y.y.y.y.y.y.y.y.r.#.B i h h h h h h h h h h h h h h h h h n y.y.      ",
"      y.y.F h h h h h h h h h h s j %.y.y.y.y.y.y.y.y.y.y.y.y.y.y.y.t.5.4.0.y.y.a h h h h h h h h h h h h h h h h h c y.y.      ",
"      y.y.F h h h h h h h h h h 3 y.y.y.y.7.#.T B c c M K E ( I B g : u u ; k 7.p h h h h h h h h h h h h h h h h h c y.y.      ",
"      y.y.F h h h h h h h h h h ; w.4.n : y i y t g j g g = & u y : p g : y h < : h h h h h h h h h h h h h h h h h c y.y.      ",
"      y.y.F h h h h h h h h h h s w ; h u 3 L <.y.y.y.y.y.y.0.>.7.y.y.y.y.1.A 1 $ h h h h h h h h h h h h h h h h h c y.y.      ",
"      y.y.G h h h h h h h h h h h & 3 Z >.y.y.y.y.y.y.y.y.y.y.y.y.y.y.y.y.y.y.y.<.L g i h h h h h h h h h h h h h h c y.y.      ",
"      y.y.G h h h h h h h h u 4 F 1.y.y.y.y.$.F B Z T %.e.y.y.y.y.y.y.y.y.7.{ } 2.r.y.A h h h h h h h h h h h h h h c y.y.      ",
"      y.y.F h h h h h h h * >.y.y.y.t.$.B : u h h h h s * 4 m ~ 1.5.#.A 3 y d s y p T T h h h h h h h h h h h h h h c y.y.      ",
"      y.y.G h h h h h h h d ) y.,.x : i h h h h h h h h h h h f u u s h h h h h h h h $ h h h h h h h h h h h h h h M y.y.      ",
"      y.y.F h h h h h h h h b t.1 h h h h * h h h < N F D M j 1 ; i d s : N L t y $ h h h h h h h h h h h h h h h h z y.y.      ",
"      y.y.F h h h h h h h h : O.s h h h u , h h h t 9.t.y.y.y.y.0.=.( o.r.y.y.' u Z Z * h h h s ; 3 g 4 - y f h h h c y.y.      ",
"      y.y.F h h h h h h h h i # h h h d D W h h h h 4 2.y.y.t.y.y.y.y.y.y.y.8.1 h 3 t.5.L D P ..w.y.y.y.y.7.R j s h z y.y.      ",
"      y.y.F h h h h h h h h h s h h d k t.X.s h h h h y # 9 P 5.y.y.y.y.y.y.>.b u u 2.y.y.y.y.y.y.y.y.y.y.y.t.y.W u z y.y.      ",
"      y.y.F h h h h h h s y - p g M ! r.y.r.N a 3 * i 4 X._ ^ 3.y.y.y.y.y.y.y.y.l d ` y.t.t.$.F j p : 4 9 y.y.y.y.b c y.y.      ",
"      y.t.G h h u b D E @.8.t.y.y.y.y.y.y.t.=.K j : h c y.y.y.y.y.y.y.y.y.y.y.y.N s } W z - i h h h : L #.y.y.y.O.# k y.y.      ",
"      y.y.F h h b y.y.y.y.y.y.y.t.t.5.P x : u h h h h 4 y.y.y.y.y.y.y.y.y.y.y.y.z u ; h h h h h h < 6.y.y.y.y.y.t.3 c y.y.      ",
"      y.y.G h h m t.y.y.y.y.w...B p y h h h h h h h h u 1.y.y.y.y.y.| c : 3 *.=.t h h h h h h h - 4.y.y.y.y.y.y.t.c b y.y.      ",
"      y.y.F h h u : $ o o @ ; s h h h h h h h h h h h h x y.y.y.( 1 s h h u } - h h h h h h h t =.y.y.t.4.y.y.y.y.3 c t.y.      ",
"      y.y.G h h y z ( <.5.=.T n p y d h h h h h h h h h d 4 F _ O.> h h h u : h h h h h h h y  .t.y.y.T 8 y.y.y.1.u c y.y.      ",
"      y.y.F h 3 1.y.y.y.y.y.y.y.t.w.{ Z a : i h h h h h h h h d i u h h h h h h h h h h h y  .y.y.w.v $ 4.y.y.y.G h c t.y.      ",
"      y.y.F h N y.y.y.y.y.y.y.y.y.y.t.y.t.t.;.P n 3 - h h h h h h h h h h h h h h h h h i ] y.y.;.1 f F y.y.y.t.4 h c t.y.      ",
"      y.y.F h Z y.y.y.y.y.y.y.y.y.y.y.t.y.y.y.y.y.y.w.q h h h h h h h h h h h h h h h h g y.y.~ y h 1 t.y.y.y.7.u h c y.y.      ",
"      y.y.F h : 1.y.y.y.y.y.y.y.y.7.Z ~ <.w.y.y.y.y.y.W h h h h h h h h h h h h h h h h j r.m s h u o.y.y.y.y.P h h c y.y.      ",
"      y.y.F h h t ^ y.y.y.y.y.y.y.5.x ; u t : a n P 5.@.s h h h h h h h h h h h h h h h : 1 d h h m y.y.y.y.t.g h h c y.y.      ",
"      y.y.F h h h i x 0.y.y.y.y.y.t.y.>.x y h h h h t 4 y h h h h h h h h h h h h h h h h h h h = w.y.y.y.y.7.t h h b y.y.      ",
"      y.y.G h h h h h 1 X.y.y.y.y.y.y.y.y.,.n * d h h h h h h h h h h h h h h h h h h h h h h - =.y.y.y.y.e.9 h h h M y.y.      ",
"      y.y.K h h h h h h u Z t.y.y.y.y.y.y.y.y.w.! n 3 - t s d h h h h h h h h h h h h h h u x 5.t.y.y.y.~ 1 h h h y +.y.y.      ",
"      y.y.F h h h h h h h h 2 >.y.y.y.y.y.y.y.y.y.y.y.y.8.$.~ % d h h h h h h h h h h h # o.y.y.t.t.o.4 s h h h t ` y.y.y.      ",
"      y.y.K h h h h h h h h h t E y.y.y.y.y.y.y.y.y.y.y.y.e.x s h h h h h h h h h h h h s - N X...k i h h h h - *.y.y.y.y.      ",
"      y.y.L h h h h h h h h h h s g G ' 2.r.y.y.y.y.y.y.5.2 f h h h h h h h h h h h h h h h h d d h h h h f 4 9.y.y.y.y.y.      ",
"      y.y.L h h h h h h h h h h h h h d u : 3 j N L { { - h h h h h h h h h h h h h h h h h h h h h h h i m t.y.y.y.y.y.y.      ",
"      y.y.F h h h h h h h h h h h h h h h h h h h h d d h h h h h h h h h h h h h h h h h h h h h h h u E y.y.y.y.y.y.y.y.      ",
"      y.y.K h h h h h h h h h h h h h h h h h h h h h h h h h h h h h h h h h h h h h h h h h h h h :  .y.y.y.y.y.y.y.y.y.      ",
"      y.y.G h h h h h h h h h h h h h h h h h h h h h h h h h h h h h h h h h h h h h h h h h h h 1 2.y.y.y.y.y.y.y.y.y.y.      ",
"      y.y.F h h h h h h h h h h h h h h h h h h h h h h h h h h h h h h h h h h h h h h h h h s x e.y.y.y.y.y.y.y.y.y.y.y.      ",
"      y.y.F h h h h h h h h h h h h h h h h h h h h h h h h h h h h h h h h h h h h h h h h y P y.y.y.y.y.y.y.y.y.y.y.y.y.      ",
"      y.y.>.G G K F L G G G K K G G Z Z Z Z Z Z H F F F F F L I I I I I I I I U I I I I I U ,.y.y.y.y.y.y.y.y.y.y.y.y.y.y.      ",
"      y.y.y.y.y.y.y.y.y.y.y.y.y.y.y.y.y.y.y.y.y.y.y.y.y.y.y.y.y.y.y.y.y.y.y.y.y.y.y.y.y.y.y.y.y.y.y.y.y.y.y.y.y.y.y.y.y.y.      ",
"      [ [ [ [ [ [ [ [ [ ' [ [ [ [ [ [ [ [ [ [ [ [ [ [ [ [ [ [ [ [ [ [ [ ' [ [ [ [ [ [ [ [ [ [ [ [ [ [ [ [ [ [ [ [ [ [ [ }       ",
"                                                                                                                                ",
"                                                                                                                                "
};
