/* XPM */
static char *result[] = {
/* columns rows colors chars-per-pixel */
"32 32 102 2 ",
"   c black",
".  c gray9",
"X  c #3E0E29",
"o  c #3F152E",
"O  c #353535",
"+  c #393937",
"@  c #3D3D3C",
"#  c #4C052E",
"$  c #42092A",
"%  c #4A092F",
"&  c #42142F",
"*  c #4F0630",
"=  c #4B0E30",
"-  c #540532",
";  c #5A0335",
":  c #530B35",
">  c #5F0238",
",  c #461130",
"<  c #4B1534",
"1  c #451B34",
"2  c #491A35",
"3  c #4F1A39",
"4  c #541339",
"5  c #551B3C",
"6  c #59193D",
"7  c #66023C",
"8  c #442335",
"9  c #4B243A",
"0  c #4A2B3C",
"q  c #52213E",
"w  c #5A1E41",
"e  c #572441",
"r  c #5D2244",
"t  c #572D45",
"y  c #5B2B46",
"u  c #5E2D4A",
"i  c #513A46",
"p  c #5C3F50",
"a  c #612548",
"s  c #622D4C",
"d  c #64344E",
"f  c #673551",
"g  c #643E54",
"h  c #693A55",
"j  c #6B3D58",
"k  c #434343",
"l  c #484847",
"z  c #4D4D4C",
"x  c #56414D",
"c  c #50504F",
"v  c #535252",
"b  c #6D445B",
"n  c #6B4C5D",
"m  c #71465D",
"M  c #714B61",
"N  c #695560",
"B  c #6E5C66",
"V  c #725163",
"C  c #785568",
"Z  c #755C6A",
"A  c #7A5C6C",
"S  c #75646B",
"D  c #7A636F",
"F  c #7F6472",
"G  c #7E6873",
"H  c #816474",
"J  c #836A76",
"K  c #856C79",
"L  c #89717E",
"P  c #8C7581",
"I  c #8E7C85",
"U  c #907D87",
"Y  c #94828B",
"T  c #98868F",
"R  c #938A8E",
"E  c #968890",
"W  c #9B8D93",
"Q  c #9C9296",
"!  c #A3969C",
"~  c #A39B9E",
"^  c #AA9EA3",
"/  c #A9A3A5",
"(  c #AEA8A9",
")  c #B0A6AA",
"_  c #B2ACAE",
"`  c #B5AFB0",
"'  c #B4B4B3",
"]  c #BAB5B5",
"[  c #BDBABA",
"{  c #C1BCBD",
"}  c #C5BFC0",
"|  c #C3C2C1",
" . c #C8C7C6",
".. c #CECBCA",
"X. c #D4D3D2",
"o. c #D9D7D5",
"O. c #DAD9D7",
"+. c #DCDBD9",
"@. c #E0DFDD",
"#. c #E2E1DF",
"$. c #E5E4E2",
"%. c None",
/* pixels */
"%.%.%.%.%.%.                                                    ",
"%.%.%.%.%.    l ` ' ' ' ' ' ' ' ' [ | | | | | | | | | | | | @   ",
"%.%.%.%.    z $.V 6 6 6 6 9 | S +.G a a a a a a a a a a a ~ v   ",
"%.%.%.    z $.g 7 7 7 7 7 n $.p G _ q m : 7 7 7 7 7 7 7 7 P v   ",
"%.%.    k $.b 7 7 7 7 7 y , s d : % ! $.^ - 7 7 7 7 7 7 7 I v   ",
"%.    + $.V > 7 7 7 7 7 ~ +.~ < 7 7 U $.$...o 7 7 7 7 7 7 P v   ",
"    O $.Z 7 7 7 7 7 7 > $ 6 r > 7 7 : Y T - 7 7 7 7 7 7 7 U v   ",
"  . #.F > 7 7 7 7 7 7 e +./ I - 7 7 7 7 7 7 7 7 7 7 7 7 7 P v   ",
"  z [ > 7 7 7 7 7 7 7 y 2 X & % 7 7 7 7 7 7 7 7 7 7 7 7 7 U v   ",
"  c Q 7 7 7 7 7 7 7 7 1 ] @. .M 7 7 7 7 7 7 7 7 7 7 7 7 7 P v   ",
"  c Q 7 7 7 7 7 7 7 ; 1 9 & o 0 $ 7 7 7 7 7 7 7 7 7 7 7 7 P v   ",
"  c Q 7 7 7 7 7 7 - n ..$.$.$.$.#.( D r 7 7 7 7 7 7 7 7 7 P v   ",
"  v Q 7 7 7 7 7 u X.#.` T Y Q ~ L m b _ - 7 7 7 7 7 7 7 7 P v   ",
"  v Q 7 7 7 7 7 y u $ e A K A j m K V 2 # 7 7 7 7 7 7 7 7 P v   ",
"  c Q 7 7 7 7 - y P o.' T ' #.$.$.#.#._ _ g 7 7 7 7 7 7 7 L v   ",
"  v Q 7 7 7 ; { ) j : > 7 7 - e h r * 7 7 q 7 7 7 7 7 7 7 U v   ",
"  v Q 7 7 7 7 Z - 7 $ 7 # Y W H j h K Z o - 7 > * - - 7 7 L v   ",
"  v Q 7 7 7 7 # 7 : R > 7 5 D { #.$.$.Z # O.~ ] #.$.+.Y : P v   ",
"  v W 7 : r h C P | $.N X = ' | $.$.$.$.% ~ K s : 8 ~ $.Z L v   ",
"  v Q 7 U $.$...P f - 7 7 - O.$.$.^ D | # ; 7 7 q +.$.$.J P v   ",
"  v Q 7 $ i x 2 - 7 7 7 7 7 u ~ x 7 ; 3 7 7 7 5 O.} / $.m P v   ",
"  v Q : O.$.$.$.#./ H d : > 7 7 ; 7 7 7 7 7 4 X.W 1 @.$.4 P v   ",
"  c Q 4 O.$.$.$.@.Q ..$.$.I 7 7 7 7 7 7 7 7 K M ; ! $.] > P v   ",
"  v Q 7 4 _ $.$.+.Z $ - 5 N ; 7 7 7 7 7 7 7 * 7 d $.$.C 7 P v   ",
"  v Q 7 7 > A $.$.$.+.J w - ; 7 7 7 7 7 7 7 > y O.$.I ; > ^ v   ",
"  v Q 7 7 7 7 q  .$.$.$.$.$...8 7 7 7 7 7 7 2 / ! 5 7 ; L $.v   ",
"  v ! 7 7 7 7 7 ; r b K W ( e 7 7 7 7 7 7 7 7 7 7 7 ; ^ $.$.v   ",
"  v Q 7 7 7 7 7 7 7 7 7 7 > 7 7 7 7 7 7 7 7 7 7 7 < | $.$.$.v   ",
"  v Q 7 7 7 7 7 7 7 7 7 7 7 7 7 7 7 7 7 7 7 7 7 d +.$.$.$.$.v   ",
"  v ' r r r r r r r r r a r r r r r r r r r r L $.$.$.$.$.$.v   ",
"  0 ' ' ' ' ' ' ' ' ' ' ' ' ' ' ' ' ' ' ' ' ' ' ' ' ' ' ' ' @   ",
"                                                                "
};
