<?xml version="1.0" encoding="UTF-8" standalone="no"?>
<!-- Generator: Adobe Illustrator 19.2.1, SVG Export Plug-In . SVG Version: 6.00 Build 0)  -->

<svg
   version="1.1"
   id="Layer_1"
   x="0px"
   y="0px"
   viewBox="0 0 593.27999 593.27998"
   xml:space="preserve"
   sodipodi:docname="cash.svg"
   width="6.1799998in"
   height="6.1799998in"
   inkscape:export-filename="dynamic-16.png"
   inkscape:export-xdpi="2.5889969"
   inkscape:export-ydpi="2.5889969"
   inkscape:version="1.3.2 (091e20e, 2023-11-25, custom)"
   xmlns:inkscape="http://www.inkscape.org/namespaces/inkscape"
   xmlns:sodipodi="http://sodipodi.sourceforge.net/DTD/sodipodi-0.dtd"
   xmlns="http://www.w3.org/2000/svg"
   xmlns:svg="http://www.w3.org/2000/svg"
   xmlns:i="http://ns_ai;"><defs
   id="defs15" /><sodipodi:namedview
   id="namedview15"
   pagecolor="#ffffff"
   bordercolor="#000000"
   borderopacity="0"
   inkscape:showpageshadow="2"
   inkscape:pageopacity="0.0"
   inkscape:pagecheckerboard="true"
   inkscape:deskcolor="#d1d1d1"
   inkscape:clip-to-page="true"
   shape-rendering="auto"
   inkscape:zoom="1.4142136"
   inkscape:cx="235.46656"
   inkscape:cy="221.67798"
   inkscape:window-width="3440"
   inkscape:window-height="1369"
   inkscape:window-x="-8"
   inkscape:window-y="-8"
   inkscape:window-maximized="1"
   inkscape:current-layer="Layer_1"
   inkscape:document-units="in" />
<style
   type="text/css"
   id="style1">
	.st0{fill:#FFFFFF;}
</style>
<g
   i:extraneous="self"
   id="g15"
   transform="translate(-0.91039821,-114.2102)"
   inkscape:label="g1">
		<path
   id="path3"
   style="display:inline;fill:#e5e4e2;fill-opacity:1;stroke:#000000;stroke-opacity:1"
   class="st0"
   d="m 355.90064,135.30004 c -67.62493,0.025 -135.25046,0.10079 -202.90039,0.30079 -5,0 -11.10118,3.19883 -14.70118,6.79882 -34.79996,35.09997 -69.400033,70.50082 -103.499999,106.30079 -3.899996,4.09999 -6.59961,11.29961 -6.59961,17.09961 -0.399999,135.99986 -0.298828,272.09975 -0.298828,408.09962 v 12.70117 H 567.19948 c 0,-184.09981 -3.9e-4,-367.10137 0.0996,-550.70119 -3.3,-0.2 -5.90001,-0.59961 -8.5,-0.59961 -67.64994,0 -135.27352,-0.025 -202.89845,0 z m -60.40039,22 c 0.8,0.7 1.7,1.39962 2.5,2.09961 -1.9,3.6 -3.8,7.10118 -6,11.20118 7.69999,15.59998 25.1004,15.89883 37.90039,24.29883 8.39999,-13.59999 5.69843,-25.09884 -6.10156,-36.29883 h 218.80079 v 12.59961 c 0,129.49987 -0.10078,258.90053 0.19922,388.4004 0,8.19999 -2.49884,13.4 -8.79883,18.5 -32.79997,26.29997 -65.20004,53.29925 -98.00001,79.69922 -3.59999,2.9 -8.80117,5.40039 -13.20117,5.40039 -120.99988,0.3 -241.89857,0.19922 -362.898446,0.19922 -1.099999,0 -2.200394,-0.29883 -5.400391,-0.79883 0,-4.69999 -0.0012,-8.8 -0.201171,-13 0,-122.89988 0.10039,-245.80131 -0.09961,-368.70118 0,-7.89999 2.101178,-13.7004 7.701172,-19.40039 30.79997,-31.49997 61.399256,-63.19926 91.699226,-95.19922 5.89999,-6.2 11.79922,-8.5004 20.19921,-8.4004 29.09998,0.5 58.30004,0.20118 90.50001,0.20118 -7.99999,6.39999 -13.60001,10.89922 -19,15.19922 9.09999,26.79997 31.50159,33.40037 61.60156,18.40039 -7.89999,-7 -23.60156,-6.9008 -22.10156,-21.80079 0.4,-4.49999 7.00117,-8.39961 10.70117,-12.59961 z m 50.5,18.50001 c -0.8,-0.2 -2.39961,1.70039 -3.09961,2.90039 -8.69999,14.19998 -9.40155,29.69884 -3.60156,44.29883 2.5,6.29999 11.30001,10.10117 17.5,14.70117 3.4,2.5 7.30118,4.4 11.20117,6 2.2,0.9 5.59883,1.59961 7.29883,0.59961 16.39998,-9.69999 32.50119,-19.69923 48.70117,-29.69922 0,-1.1 0.0996,-2.10118 0.0996,-3.20117 -21.59998,-0.4 -35.10079,-10.99924 -46.80078,-28.19922 -4.49999,-6.6 -20.49884,-5.4004 -31.29883,-7.40039 z m -106.80078,10.59961 c -6.2,11.99998 -11.90001,23.10118 -18,34.70117 5.59999,3.49999 9.90078,8.09844 14.80078,8.89844 14.29998,2.29999 28.99962,4.80156 43.09961,3.10156 3.88698,-0.49833 6.28546,-14.80077 9.27148,-22.81641 -10.14892,-1.10036 -19.4115,-2.78519 -28.67187,-2.88476 -13.79999,-0.1 -12.40001,-14.00001 -20.5,-21 z m 49.17187,23.88476 c 0.0434,0.005 0.0855,0.0109 0.12891,0.0156 -0.0386,-0.14473 -0.0373,-0.17479 -0.0605,-0.27735 -0.007,0.0612 -0.017,0.12256 -0.0391,0.17774 -0.01,0.0267 -0.0193,0.0572 -0.0293,0.084 z m 0.0684,-0.26172 c 0.0515,-0.43955 -0.19132,-0.84307 0,0 z m -70.33984,30.67774 c -2.2,14.19998 -4.59922,29.30002 -7.19922,46 13.19999,-7.39999 17.39924,-25.89961 35.19922,-21.09961 12.69999,3.5 28.59962,-4.80154 39.59961,13.89844 -1.7,-13.39999 -3.00039,-22.79962 -3.90039,-30.09961 -21.89998,-3 -42.49924,-5.79922 -63.69922,-8.69922 z m 30.42187,37.94531 c -6.7078,0.10606 -13.24727,0.91641 -19.32226,2.75391 -11.69999,3.49999 -19.59923,19.59962 -29.19922,30.09961 5.29999,0 9.19961,-1.49844 13.09961,-2.89844 8.29999,-2.9 16.6004,-8.40078 24.90039,-8.30078 21.19998,0.2 42.29924,2.79922 66.19922,4.69922 -8.39999,-8.99999 -14.19962,-20.9 -22.09961,-22.5 -10.74999,-2.25 -22.39845,-4.03028 -33.57813,-3.85352 z m -16.4414,31.55274 c -2.55703,-0.0211 -4.98008,0.30117 -7.08008,1.20117 -22.29998,9.69999 -44.0012,20.69962 -65.70118,31.59961 -2.09999,1 -4.8,4.6 -4.5,6.5 1.4,8.49999 3.70118,16.80001 5.70118,25 8.99999,-5.89999 15.99961,-12.09961 24.09961,-15.09961 8.49999,-3.1 18.20079,-3.09961 27.30078,-4.59961 6.79999,-1.1 13.60001,-2.80078 20.5,-3.30078 7.99999,-0.6 16.40001,-1.69844 24,0.10156 19.69998,4.7 38.50002,3.3 58,-2 20.49998,-5.59999 41.60002,-8.20154 59,15.89844 0.9,-9.59999 0.99844,-15.69962 2.39844,-21.59961 1.6,-8.59999 -1.69962,-12.19922 -10.09961,-14.19922 -21.79998,-5.19999 -43.20041,-11.50001 -64.90039,-17 -4.7,-1.1 -10.29923,-1.89961 -14.69922,-0.59961 -13.79999,4.2 -27.20002,3 -41,0 -4.125,-0.875 -8.75782,-1.86719 -13.01953,-1.90234 z m 17.84179,49.61914 c -19.59177,0.37988 -38.68556,4.89454 -57.62304,13.08203 -10.19999,4.4 -21.29845,6.90039 -31.89844,10.40039 -10.49999,3.4 -21.00002,7.00079 -32.5,10.80078 4.79999,15.59999 9.29883,30.29846 13.79882,44.89844 0.8,0 1.6004,0.10078 2.4004,0.30078 1.99999,-5.69999 4.59922,-11.19961 5.69921,-17.09961 1.7,-9.49999 6.9004,-14.10039 16.4004,-16.40039 13.89998,-3.29999 27.7004,-7.49922 40.90039,-12.69922 13.99998,-5.59999 27.7004,-5.09999 41.90039,-2 14.29998,3.1 29.00001,4.99923 43,9.19922 16.09998,4.8 30.29924,2.3996 45.69922,-3.90039 24.09998,-9.89999 47.20002,-5.2992 68.5,10.30078 0.2,-1.9 0.30039,-4.80117 0.90039,-7.70117 2.4,-11.69999 -1.2004,-18.1 -13.90039,-21 -15.79998,-3.5 -31.09884,-9.09922 -46.29883,-14.69922 -10.49999,-3.9 -20.50001,-4.50039 -31.5,-1.90039 -9.59999,2.2 -20.40157,4.50078 -29.60156,2.30078 -12.18749,-2.85 -24.12189,-4.11074 -35.87696,-3.88281 z m 104.68555,52.20313 c -3.48632,0.23203 -7.65742,2.1164 -14.10742,5.3789 -12.69999,6.3 -24.59962,4.00117 -37.09961,1.70117 -22.59998,-4.19999 -45.30002,-9.90077 -69,-2.80078 6.49999,12.69999 12.99924,24.10039 29.69922,25.40039 8.89999,0.7 17.6004,4.39922 26.40039,6.69922 -3.8,1.5 -7.30118,1.4 -10.70117,1 -26.09998,-3.09999 -28.09843,-1.89958 -22.89844,23.40039 1.9,9.29999 7.79884,21.69962 15.29883,25.09961 11.99999,5.5 27.00119,4.90079 40.70117,6.80079 0.6,-1.2 1.09922,-2.39962 1.69922,-3.59961 -3.8,-2.9 -7.60079,-5.80001 -11.80078,-9 35.19996,-14.79999 39.80118,-17.50117 51.70117,-10.20118 l -3.30078,15.59961 c 1.1,0.8 2.20078,1.6 3.30078,2.5 7.19999,-7.89999 16.90001,-14.79962 21,-24.09961 3.6,-7.99999 2.39922,-19.19923 0.19922,-28.19922 -0.9,-3.59999 -10.1004,-5.20117 -15.40039,-7.70117 3.5,-3.69999 8.5004,-8.89961 13.40039,-14.09961 -9.37499,-10.06249 -13.28126,-14.26562 -19.0918,-13.8789 z m 24.19141,0.77929 c 6.39999,18.69998 18.19999,34.90003 10,57 23.29998,-6.79999 43.70081,-13.99922 64.80078,-18.19922 11.49999,-2.29999 23.99963,0.79844 36.09961,1.39844 0.1,1.3 0.10118,2.70157 0.20118,4.10156 -15.29999,-0.2 -24.9004,8.69884 -33.9004,19.29883 -10.69998,12.59999 -21.40079,25.60002 -33.80078,36.5 -12.39999,10.99999 -10.09882,22.10119 -5.29883,36.20118 25.09998,-19.19998 49.30003,-37.70119 73.50001,-56.20118 -12.19999,22.49998 -25.7008,43.5012 -39.80079,64.20118 -3.09999,4.49999 -7.70039,8.4 -12.40039,11.5 -8.39999,5.49999 -17.39962,10.19844 -28.09961,16.39844 10.59999,3.89999 18.8004,6.20078 26.40039,9.80078 7.4,3.39999 13.50001,3.00077 20.5,-1.19922 14.59999,-8.59999 30.00002,-16.00079 44.50001,-24.80078 4.39999,-2.6 8.59883,-7.70001 10.29882,-12.5 6.8,-19.69998 12.5004,-39.79963 18.9004,-59.59961 3.69999,-11.39999 8.60077,-22.69963 -3.19922,-34.09962 h 10.69922 c -3.4,-19.49998 -15.40002,-27.1 -32.50001,-32 -17.99998,-5.09999 -34.99923,-7.70155 -53.19922,-3.10156 -9.69999,2.4 -19.70118,4.20078 -29.70117,4.80078 -5.99999,0.4 -12.69961,-1.09922 -18.09961,-3.69922 -9.09999,-4.39999 -17.3004,-10.40078 -25.90039,-15.80078 z m -176.79883,3.80078 c -7.39999,9.59999 -13.50001,16.49962 -18.5,24.09961 -4.4,6.6 -9.60118,9.89922 -17.70118,10.69922 -22.59997,2.3 -45.09924,5.7004 -67.699216,8.40039 -19.49998,2.4 -19.600001,2.30081 -20,22.30079 0,0.69999 0.4,1.39922 1,3.69921 21.199976,1.8 41.600026,6.2 63.000006,-0.5 30.79996,-9.79999 62.39925,-17.1 93.69922,-25.5 2.29999,-0.6 4.6,-1.69922 10,-3.69922 -11.99999,-1.29999 -20.59884,-3 -29.29883,-3 -9.59999,0 -12.69961,-4.30079 -12.59961,-13.30078 0.1,-6.79999 -1.10039,-13.59923 -1.90039,-23.19922 z m -86.49024,76.75782 c -11.34645,-0.14063 -22.441417,2.06094 -33.410156,7.74219 -4.599996,2.29999 -11.800391,6.09844 -11.900391,9.39843 -0.4,9.79999 -6.798816,20.70118 5.701172,29.20118 27.899975,18.89998 54.798855,38.99885 82.298835,58.29883 3.59999,2.59999 8.1,4.50117 12.5,5.20117 25.59997,3.99999 51.2008,7.69922 76.80078,11.19922 3.7,0.5 8.59961,1.10117 11.09961,-0.79883 12.89999,-9.99999 25.29923,-20.7008 39.69922,-32.80078 -25.59998,-3.7 -48.89846,-4.4004 -70.39844,-10.90039 -21.29998,-6.4 -40.80159,-18.59884 -61.10157,-28.29883 0.6,-1.3 1.20079,-2.70157 1.80079,-4.10157 30.49997,7 63.20003,2.80002 93,20.50001 -1,-8.8 -2.4,-15.99962 -2.5,-23.09962 -0.2,-9.39999 -4.69923,-12.99883 -13.69922,-14.79882 -34.39997,-7 -68.90043,-13.90118 -102.90039,-22.70118 -9.18749,-2.40624 -18.16522,-3.93164 -26.99024,-4.04101 z"
   inkscape:label="polygon" /><path
   id="path20"
   style="display:inline;stroke-width:0.96000003;stroke-dasharray:none"
   inkscape:label="path1"
   d="M 135.42017,107.9602 C 112.9815,129.98139 90.540493,151.9996 68.088134,174.00708 45.581217,196.97057 23.097909,219.95903 0.57641383,242.90747 V 713.73951 H 594.5237 V 107.9602 Z m 220.38086,27.33984 c 67.62481,-0.025 135.25061,0 202.9004,0 2.6,0 5.30001,0.39961 8.5,0.59961 V 686.59889 H 27.801024 v -12.69922 c 0,-135.9996 -0.10117,-272.10003 0.298828,-408.09962 0,-5.79999 2.701575,-12.99963 6.601563,-17.09961 34.099898,-35.7999 68.700105,-71.20089 103.500005,-106.30079 3.59998,-3.69998 9.69923,-6.80078 14.69922,-6.80078 67.64979,-0.2 135.2756,-0.27383 202.90039,-0.29883 z" /><path
   d="m 54.5,662.6 c 0,-4.7 0,-8.8 0,-13 0,-122.9 0.1,-245.8 -0.1,-368.7 0,-7.9 2,-13.7 7.7,-19.4 30.9,-31.4 61.5,-63.1 91.7,-95.2 5.9,-6.2 11.8,-8.5 20.2,-8.4 29.2,0.5 58.3,0.2 90.5,0.2 -8,6.4 -13.6,10.9 -19,15.2 9.1,26.8 31.6,33.4 61.6,18.4 -7.9,-7 -23.6,-6.9 -22.1,-21.8 0.5,-4.5 7,-8.4 10.7,-12.6 0.8,0.7 1.7,1.4 2.5,2.1 -1.9,3.5 -3.8,7.1 -6,11.2 7.6,15.6 25.1,15.9 37.9,24.3 8.3,-13.6 5.7,-25.1 -6.1,-36.3 73.7,0 145.4,0 218.8,0 0,4.5 0,8.5 0,12.6 0,129.5 -0.1,258.9 0.2,388.4 0,8.2 -2.5,13.4 -8.8,18.5 -32.8,26.4 -65.2,53.3 -98,79.7 -3.6,2.9 -8.8,5.4 -13.2,5.4 -121,0.3 -241.9,0.2 -362.9,0.2 -1.3,0 -2.4,-0.3 -5.6,-0.8 z M 261.6,558 c -1,-8.8 -2.4,-16 -2.5,-23.2 -0.2,-9.4 -4.7,-12.9 -13.7,-14.8 -34.4,-7 -68.9,-13.9 -102.9,-22.7 -21.1,-5.5 -40.9,-6.4 -60.4,3.7 -4.6,2.4 -11.8,6.1 -11.9,9.4 -0.3,9.8 -6.8,20.8 5.7,29.2 27.8,18.8 54.8,38.9 82.3,58.3 3.6,2.5 8.2,4.5 12.5,5.2 25.6,4 51.2,7.7 76.8,11.2 3.7,0.5 8.6,1.1 11.1,-0.8 12.9,-10 25.3,-20.7 39.7,-32.8 -25.6,-3.7 -48.8,-4.4 -70.4,-10.9 -21.3,-6.4 -40.8,-18.6 -61.1,-28.3 0.6,-1.4 1.2,-2.8 1.8,-4.1 30.5,7.1 63.2,2.9 93,20.6 z m 276.6,-95.4 c -3.3,-19.5 -15.4,-27.1 -32.6,-32 -17.9,-5.1 -35,-7.8 -53.2,-3.1 -9.7,2.5 -19.7,4.2 -29.7,4.8 -6,0.3 -12.7,-1.1 -18.1,-3.7 -9,-4.4 -17.3,-10.5 -25.9,-15.8 6.4,18.7 18.2,34.9 10,57 23.3,-6.7 43.7,-14 64.8,-18.2 11.5,-2.3 24.1,0.8 36.1,1.4 0.1,1.4 0.1,2.8 0.2,4.1 -15.3,-0.2 -24.9,8.6 -33.9,19.3 -10.7,12.7 -21.4,25.6 -33.8,36.5 -12.4,11 -10.2,22.1 -5.3,36.2 25.2,-19.3 49.4,-37.7 73.5,-56.2 -12.2,22.5 -25.8,43.5 -39.8,64.2 -3.1,4.6 -7.7,8.5 -12.4,11.5 -8.4,5.5 -17.3,10.2 -28.1,16.4 10.7,3.9 18.8,6.2 26.4,9.8 7.4,3.5 13.5,3 20.5,-1.2 14.6,-8.6 30,-16 44.5,-24.8 4.4,-2.7 8.6,-7.7 10.3,-12.5 6.8,-19.7 12.5,-39.7 18.9,-59.6 3.7,-11.4 8.6,-22.6 -3.2,-34.1 5.1,0 8,0 10.8,0 z m -187,34.9 c 1.1,0.8 2.2,1.6 3.3,2.4 7.3,-7.9 16.9,-14.8 21,-24.1 3.6,-8 2.4,-19.2 0.2,-28.2 -0.9,-3.6 -10.1,-5.2 -15.4,-7.7 3.5,-3.7 8.4,-8.9 13.4,-14.1 -15.1,-16.2 -16,-17.2 -33.2,-8.5 -12.7,6.4 -24.5,4 -37.1,1.7 -22.7,-4.1 -45.3,-9.9 -69,-2.8 6.5,12.6 13,24.1 29.7,25.4 8.9,0.7 17.6,4.4 26.4,6.7 -3.9,1.5 -7.3,1.4 -10.7,1 -26,-3.1 -28,-1.9 -22.9,23.4 1.9,9.3 7.8,21.6 15.3,25.1 12.1,5.5 27,4.9 40.7,6.8 0.6,-1.2 1.1,-2.4 1.7,-3.6 -3.8,-2.9 -7.7,-5.8 -11.8,-9 35.3,-14.8 39.8,-17.5 51.7,-10.2 -1.1,5.3 -2.2,10.5 -3.3,15.7 z M 141.7,439 c 0.8,0.1 1.6,0.1 2.4,0.2 2,-5.7 4.6,-11.3 5.7,-17.1 1.8,-9.6 7,-14.1 16.4,-16.4 13.9,-3.3 27.6,-7.5 40.9,-12.7 14,-5.5 27.7,-5 41.9,-2 14.3,3.1 29,5 43,9.2 16.1,4.8 30.3,2.5 45.7,-3.9 24.1,-9.9 47.1,-5.3 68.5,10.3 0.2,-1.8 0.3,-4.8 0.9,-7.7 2.4,-11.7 -1.1,-18.1 -13.9,-21 -15.7,-3.5 -31.1,-9.1 -46.3,-14.7 -10.5,-3.9 -20.5,-4.5 -31.5,-1.9 -9.6,2.2 -20.4,4.5 -29.6,2.3 -32.5,-7.6 -63.2,-3.9 -93.5,9.2 -10.2,4.4 -21.3,7 -31.9,10.4 -10.5,3.4 -21,7 -32.5,10.8 4.8,15.7 9.3,30.3 13.8,45 z m 231.7,-73.5 c 0.9,-9.6 1,-15.7 2.1,-21.6 1.6,-8.6 -1.7,-12.2 -10.1,-14.2 -21.7,-5.2 -43.2,-11.5 -64.9,-17 -4.7,-1.2 -10.2,-2 -14.7,-0.6 -13.8,4.2 -27.2,3 -41,0 -6.5,-1.4 -14.5,-3.1 -20.1,-0.7 -22.3,9.6 -43.9,20.7 -65.7,31.6 -2.2,1.1 -4.9,4.6 -4.5,6.5 1.3,8.5 3.7,16.8 5.7,25 9,-5.8 16,-12.1 24.1,-15.1 8.5,-3.2 18.1,-3.2 27.3,-4.6 6.9,-1.1 13.7,-2.8 20.5,-3.3 8,-0.6 16.4,-1.7 24,0.1 19.7,4.7 38.5,3.2 58,-2 20.8,-5.6 41.9,-8.2 59.3,15.9 z M 79.1,485.8 c 21.2,1.8 41.6,6.2 63.1,-0.6 30.8,-9.8 62.5,-17.1 93.7,-25.5 2.4,-0.6 4.6,-1.7 10,-3.7 -12,-1.3 -20.7,-3.1 -29.3,-3 -9.7,0 -12.7,-4.3 -12.6,-13.3 0.1,-6.8 -1,-13.5 -1.9,-23.2 -7.4,9.6 -13.4,16.5 -18.5,24.1 -4.4,6.6 -9.6,9.9 -17.7,10.7 -22.6,2.3 -45.2,5.7 -67.7,8.4 -19.5,2.4 -19.6,2.3 -20,22.3 -0.1,0.8 0.2,1.5 0.9,3.8 z M 424,214.6 c 0,-1.1 0.1,-2.1 0.1,-3.2 -21.6,-0.4 -35.1,-11.1 -46.8,-28.2 -4.5,-6.6 -20.5,-5.3 -31.3,-7.4 -0.8,-0.2 -2.3,1.7 -3.1,2.9 -8.7,14.1 -9.4,29.7 -3.6,44.3 2.5,6.2 11.3,10.1 17.5,14.7 3.4,2.5 7.3,4.4 11.2,6 2.2,0.9 5.6,1.6 7.3,0.6 16.4,-9.7 32.5,-19.7 48.7,-29.7 z M 304.2,305 c -8.4,-9 -14.2,-20.8 -22.2,-22.5 -17.2,-3.6 -36.7,-6 -52.9,-1.1 -11.7,3.5 -19.6,19.6 -29.2,30.1 5.3,0 9.2,-1.5 13.1,-2.9 8.3,-3 16.6,-8.4 24.9,-8.3 21.3,0.1 42.4,2.8 66.3,4.7 z m -65,-118.6 c -6.2,12 -11.9,23.2 -17.9,34.8 5.6,3.5 9.9,8.1 14.8,8.9 14.3,2.2 29,4.7 43.1,3.1 4,-0.5 6.3,-14.8 9.3,-22.9 0.2,-0.6 -0.4,-1.4 0.1,0.1 -10.2,-1.1 -19.5,-2.8 -28.8,-2.9 -14,-0.2 -12.5,-14.2 -20.6,-21.1 z m -28.3,100.3 c 13.2,-7.4 17.4,-25.9 35.1,-21 12.8,3.5 28.6,-4.8 39.6,13.9 -1.7,-13.4 -2.9,-22.8 -3.9,-30.1 -21.9,-3 -42.5,-5.8 -63.7,-8.7 -2.1,14.1 -4.5,29.2 -7.1,45.9 z"
   id="path4"
   style="display:inline;fill:#66023c;fill-opacity:1;stroke:#000000;stroke-opacity:1;stroke-width:3.74400011;stroke-dasharray:none"
   inkscape:label="path2"
   transform="translate(0)" />
	</g>

</svg>
