<?xml version="1.0" encoding="UTF-8" standalone="no"?>
<svg
   viewBox="0 -256 256 256"
   id="svg3025"
   version="1.1"
   inkscape:version="1.3.2 (091e20e, 2023-11-25, custom)"
   width="256"
   height="256"
   sodipodi:docname="Chevron_right_font_awesome.svg"
   xmlns:inkscape="http://www.inkscape.org/namespaces/inkscape"
   xmlns:sodipodi="http://sodipodi.sourceforge.net/DTD/sodipodi-0.dtd"
   xmlns="http://www.w3.org/2000/svg"
   xmlns:svg="http://www.w3.org/2000/svg"
   xmlns:rdf="http://www.w3.org/1999/02/22-rdf-syntax-ns#"
   xmlns:cc="http://creativecommons.org/ns#"
   xmlns:dc="http://purl.org/dc/elements/1.1/">
  <metadata
     id="metadata3035">
    <rdf:RDF>
      <cc:Work
         rdf:about="">
        <dc:format>image/svg+xml</dc:format>
        <dc:type
           rdf:resource="http://purl.org/dc/dcmitype/StillImage" />
      </cc:Work>
    </rdf:RDF>
  </metadata>
  <defs
     id="defs3033" />
  <sodipodi:namedview
     pagecolor="#ffffff"
     bordercolor="#666666"
     borderopacity="1"
     objecttolerance="10"
     gridtolerance="10"
     guidetolerance="10"
     inkscape:pageopacity="0"
     inkscape:pageshadow="2"
     inkscape:window-width="3440"
     inkscape:window-height="1369"
     id="namedview3031"
     showgrid="false"
     inkscape:zoom="2.1071429"
     inkscape:cx="-112.71186"
     inkscape:cy="157.32203"
     inkscape:window-x="-8"
     inkscape:window-y="-8"
     inkscape:window-maximized="1"
     inkscape:current-layer="svg3025"
     inkscape:showpageshadow="2"
     inkscape:pagecheckerboard="0"
     inkscape:deskcolor="#d1d1d1" />
  <g
     transform="matrix(0.14352118,0,0,-0.14352118,40.739123,-26.961089)"
     id="g3027">
    <path
       d="m 1099,704 q 0,-52 -37,-91 L 410,-38 q -37,-37 -90,-37 -53,0 -90,37 l -76,75 q -37,39 -37,91 0,53 37,90 l 486,486 -486,485 q -37,39 -37,91 0,53 37,90 l 76,75 q 36,38 90,38 54,0 90,-38 l 652,-651 q 37,-37 37,-90 z"
       id="path3029"
       inkscape:connector-curvature="0"
       style="fill:#e5e4e2;fill-opacity:1" />
  </g>
</svg>
