<?xml version="1.0" encoding="UTF-8" standalone="no"?>
<!-- Generator: Adobe Illustrator 18.1.0, SVG Export Plug-In . SVG Version: 6.00 Build 0)  -->

<svg
   version="1.1"
   id="Ebene_1"
   x="0px"
   y="0px"
   viewBox="0 0 255.99999 255.99999"
   enable-background="new 0 0 841.9 841.9"
   xml:space="preserve"
   sodipodi:docname="clock_3.svg"
   width="256"
   height="256"
   inkscape:version="1.3.2 (091e20e, 2023-11-25, custom)"
   xmlns:inkscape="http://www.inkscape.org/namespaces/inkscape"
   xmlns:sodipodi="http://sodipodi.sourceforge.net/DTD/sodipodi-0.dtd"
   xmlns="http://www.w3.org/2000/svg"
   xmlns:svg="http://www.w3.org/2000/svg"><defs
   id="defs1" /><sodipodi:namedview
   id="namedview1"
   pagecolor="#ffffff"
   bordercolor="#000000"
   borderopacity="0.25"
   inkscape:showpageshadow="2"
   inkscape:pageopacity="0.0"
   inkscape:pagecheckerboard="0"
   inkscape:deskcolor="#d1d1d1"
   inkscape:zoom="1.1082076"
   inkscape:cx="420.49883"
   inkscape:cy="420.95001"
   inkscape:window-width="1920"
   inkscape:window-height="1129"
   inkscape:window-x="3432"
   inkscape:window-y="-8"
   inkscape:window-maximized="1"
   inkscape:current-layer="Ebene_1" />

<g
   id="g2"
   transform="matrix(0.43604914,0,0,0.43604914,-1.8118296,-55.533084)"
   style="fill:#e5e4e2;fill-opacity:1"><g
     id="g1"
     style="fill:#e5e4e2;fill-opacity:1">
	<path
   d="m 297.6,677.3 c -68.5,0 -132.9,-26.7 -181.3,-75.1 -48.4,-48.4 -75,-112.8 -75,-181.3 0,-68.5 26.7,-132.9 75.1,-181.3 48.4,-48.4 112.8,-75.1 181.3,-75.1 68.5,0 132.9,26.7 181.3,75.1 48.4,48.4 75.1,112.8 75.1,181.3 0,68.5 -26.7,132.9 -75.1,181.3 -48.4,48.4 -112.9,75.1 -181.4,75.1 z m 0,-472.7 c -57.8,0 -112.1,22.5 -153,63.4 -40.9,40.9 -63.4,95.2 -63.4,153 0,57.8 22.5,112.1 63.4,153 40.9,40.9 95.2,63.4 153,63.4 57.8,0 112.1,-22.5 153,-63.4 40.9,-40.9 63.4,-95.2 63.4,-153 0,-57.8 -22.5,-112.1 -63.4,-153 -40.8,-40.9 -95.2,-63.4 -153,-63.4 z"
   id="path1"
   style="fill:#e5e4e2;fill-opacity:1" />
</g><polygon
     points="297.6,184.6 297.6,420.9 297.6,657.3 465.2,601.6 534,420.9 478.3,253.4 "
     id="polygon1"
     style="fill:#e5e4e2;fill-opacity:1" /></g>
</svg>
