<?xml version="1.0" encoding="UTF-8" standalone="no"?>
<svg
   xml:space="preserve"
   enable-background="new 0 0 841.9 841.9"
   viewBox="0 0 255.99999 255.99999"
   y="0px"
   x="0px"
   id="Ebene_1"
   version="1.1"
   sodipodi:docname="clock_5.svg"
   width="256"
   height="256"
   inkscape:version="1.3.2 (091e20e, 2023-11-25, custom)"
   xmlns:inkscape="http://www.inkscape.org/namespaces/inkscape"
   xmlns:sodipodi="http://sodipodi.sourceforge.net/DTD/sodipodi-0.dtd"
   xmlns="http://www.w3.org/2000/svg"
   xmlns:svg="http://www.w3.org/2000/svg"
   xmlns:rdf="http://www.w3.org/1999/02/22-rdf-syntax-ns#"
   xmlns:cc="http://creativecommons.org/ns#"
   xmlns:dc="http://purl.org/dc/elements/1.1/"><sodipodi:namedview
     id="namedview1"
     pagecolor="#ffffff"
     bordercolor="#000000"
     borderopacity="0.25"
     inkscape:showpageshadow="2"
     inkscape:pageopacity="0.0"
     inkscape:pagecheckerboard="0"
     inkscape:deskcolor="#d1d1d1"
     inkscape:zoom="1.3932771"
     inkscape:cx="420.59115"
     inkscape:cy="420.95001"
     inkscape:window-width="3440"
     inkscape:window-height="1369"
     inkscape:window-x="-8"
     inkscape:window-y="-8"
     inkscape:window-maximized="1"
     inkscape:current-layer="Ebene_1" /><metadata
     id="metadata15"><rdf:RDF><cc:Work
         rdf:about=""><dc:format>image/svg+xml</dc:format><dc:type
           rdf:resource="http://purl.org/dc/dcmitype/StillImage" /></cc:Work></rdf:RDF></metadata><defs
     id="defs13" /><g
     id="g1"
     transform="matrix(0.43604914,0,0,0.43604914,-1.8118296,-55.533083)"
     style="fill:#e5e4e2;fill-opacity:1"><g
       id="g3"
       style="fill:#e5e4e2;fill-opacity:1"><path
         id="path5"
         d="m 297.6,677.3 c -68.5,0 -132.9,-26.7 -181.3,-75.1 -48.4,-48.4 -75,-112.8 -75,-181.3 0,-68.5 26.7,-132.9 75.1,-181.3 48.4,-48.4 112.8,-75.1 181.3,-75.1 68.5,0 132.9,26.7 181.3,75.1 48.4,48.4 75.1,112.8 75.1,181.3 0,68.5 -26.7,132.9 -75.1,181.3 -48.4,48.4 -112.9,75.1 -181.4,75.1 z m 0,-472.7 c -57.8,0 -112.1,22.5 -153,63.4 -40.9,40.9 -63.4,95.2 -63.4,153 0,57.8 22.5,112.1 63.4,153 40.9,40.9 95.2,63.4 153,63.4 57.8,0 112.1,-22.5 153,-63.4 40.9,-40.9 63.4,-95.2 63.4,-153 0,-57.8 -22.5,-112.1 -63.4,-153 -40.8,-40.9 -95.2,-63.4 -153,-63.4 z"
         style="fill:#e5e4e2;fill-opacity:1" /></g><path
       id="polygon7"
       d="M 297.6,184.6 130.1,240.3 61.3,420.9 117,588.5 297.6,657.3 465.2,601.6 534,420.9 478.3,253.4 Z m -4.1,68.8 c 14.9,0 24.8,9.9 24.8,24.8 V 403 h 74.8 c 14.9,0 24.8,9.9 24.8,24.8 0,14.9 -9.9,24.8 -24.8,24.8 h -99.6 c -14.8,0 -24.8,-12.4 -24.8,-24.8 V 278.2 c 0,-14.9 9.9,-24.8 24.8,-24.8 z"
       style="fill:#e5e4e2;fill-opacity:1" /></g></svg>
