<?xml version="1.0" encoding="UTF-8" standalone="no"?>
<svg
   version="1.1"
   viewBox="0 0 256 256"
   id="svg1"
   sodipodi:docname="configure.svg"
   inkscape:version="1.3.2 (091e20e, 2023-11-25, custom)"
   xmlns:inkscape="http://www.inkscape.org/namespaces/inkscape"
   xmlns:sodipodi="http://sodipodi.sourceforge.net/DTD/sodipodi-0.dtd"
   xmlns="http://www.w3.org/2000/svg"
   xmlns:svg="http://www.w3.org/2000/svg">
  <defs
     id="defs1" />
  <sodipodi:namedview
     id="namedview1"
     pagecolor="#ffffff"
     bordercolor="#000000"
     borderopacity="0.25"
     inkscape:showpageshadow="2"
     inkscape:pageopacity="0.0"
     inkscape:pagecheckerboard="0"
     inkscape:deskcolor="#d1d1d1"
     inkscape:zoom="4.5820312"
     inkscape:cx="127.89088"
     inkscape:cy="128"
     inkscape:window-width="3440"
     inkscape:window-height="1369"
     inkscape:window-x="-8"
     inkscape:window-y="-8"
     inkscape:window-maximized="1"
     inkscape:current-layer="svg1" />
  <title
     id="title1">configure</title>
  <path
     d="M184.59,148.35a68.22,68.22,0,0,1-26.78-2.19c-2.27-.66-3.94-.59-5.54.31L57.78,241c-7.61,7.61-22.18,5.37-32.55-5l-5.72-5.72c-10.37-10.37-12.6-24.93-5-32.54l20.63-20.62L110.19,102a9,9,0,0,0-.37-3.89c-11.57-41.18,17.12-82.82,59.81-87,2.27-.22,4.57,0,6.86,0a57.17,57.17,0,0,1,18.83,2.41c4.57,1.28,4.62,1.49,1.32,4.77Q175.34,39.58,154,60.81c-5.4,5.39-5.4,5.39,0,10.73,11.06,11,22.19,22,33.13,33.13,2.32,2.36,3.61,2.51,6,.07,14.9-15.09,30-30,45-45,3.35-3.34,3.51-3.3,4.83,1.18C254.91,101.38,226.55,143.72,184.59,148.35Z"
     id="path1"
     style="fill:#e5e4e2;fill-opacity:1" />
</svg>
