<?xml version="1.0" encoding="UTF-8" standalone="no"?>
<svg
   version="1.1"
   viewBox="0 0 256 256"
   id="svg1"
   sodipodi:docname="eye_plus.svg"
   inkscape:version="1.3.2 (091e20e, 2023-11-25, custom)"
   xmlns:inkscape="http://www.inkscape.org/namespaces/inkscape"
   xmlns:sodipodi="http://sodipodi.sourceforge.net/DTD/sodipodi-0.dtd"
   xmlns="http://www.w3.org/2000/svg"
   xmlns:svg="http://www.w3.org/2000/svg">
  <defs
     id="defs1" />
  <sodipodi:namedview
     id="namedview1"
     pagecolor="#ffffff"
     bordercolor="#000000"
     borderopacity="0.25"
     inkscape:showpageshadow="2"
     inkscape:pageopacity="0.0"
     inkscape:pagecheckerboard="0"
     inkscape:deskcolor="#d1d1d1"
     inkscape:zoom="4.5820312"
     inkscape:cx="127.89088"
     inkscape:cy="128"
     inkscape:window-width="3440"
     inkscape:window-height="1369"
     inkscape:window-x="-8"
     inkscape:window-y="-8"
     inkscape:window-maximized="1"
     inkscape:current-layer="svg1" />
  <title
     id="title1">eye_plus</title>
  <path
     d="m243.67 125.77c-15.93-23.8-35.35-44-60.56-58.06-33.89-18.85-68.77-20.61-104-3.95-29.11 13.8-50.82 36.09-68.6 62.56-1.47 2.2-1 3.84 0.3 5.84 12.64 19 27.79 35.6 46.3 49.05 21 15.24 44.18 24.1 71.28 24.47a112.24 112.24 0 0 0 45.61-10.63c29.79-14.06 52.12-36.38 70.17-63.45 1.49-2.29 0.83-3.91-0.5-5.83zm-67.29 14.32c-1.65 3.06-3.92 4.95-6.44 4.95h-25.75v25.74c0 5-7.56 9.11-16.9 9.11-6.71 0-12.51-2.11-15.23-5.16a5.94 5.94 0 0 1-1.67-3.95v-25.78h-25.73c-5 0-9.12-7.56-9.12-16.9s4.08-16.9 9.11-16.9h25.74v-25.7c0-5 7.57-9.11 16.9-9.11a25.71 25.71 0 0 1 12 2.67c3.06 1.65 4.95 3.92 4.95 6.44v25.74h25.75c5 0 9.11 7.57 9.11 16.9a25.68 25.68 0 0 1-2.72 11.95z"
     id="path1"
     style="fill:#440128;fill-opacity:1" />
</svg>
