<?xml version="1.0" encoding="UTF-8" standalone="no"?>
<svg
   version="1.1"
   viewBox="0 0 256 256"
   id="svg1"
   sodipodi:docname="transaction2.svg"
   inkscape:version="1.3.2 (091e20e, 2023-11-25, custom)"
   xmlns:inkscape="http://www.inkscape.org/namespaces/inkscape"
   xmlns:sodipodi="http://sodipodi.sourceforge.net/DTD/sodipodi-0.dtd"
   xmlns="http://www.w3.org/2000/svg"
   xmlns:svg="http://www.w3.org/2000/svg"
   xmlns:rdf="http://www.w3.org/1999/02/22-rdf-syntax-ns#"
   xmlns:cc="http://creativecommons.org/ns#"
   xmlns:dc="http://purl.org/dc/elements/1.1/">
  <defs
     id="defs1" />
  <sodipodi:namedview
     id="namedview1"
     pagecolor="#ffffff"
     bordercolor="#000000"
     borderopacity="0.25"
     inkscape:showpageshadow="2"
     inkscape:pageopacity="0.0"
     inkscape:pagecheckerboard="0"
     inkscape:deskcolor="#d1d1d1"
     inkscape:zoom="1.6199927"
     inkscape:cx="51.852086"
     inkscape:cy="60.802743"
     inkscape:window-width="1920"
     inkscape:window-height="1129"
     inkscape:window-x="3432"
     inkscape:window-y="-8"
     inkscape:window-maximized="1"
     inkscape:current-layer="svg1" />
  <title
     id="title1">transaction0</title>
  <path
     id="rect1"
     style="fill:#440128;fill-rule:evenodd;stroke-width:13.8427;paint-order:stroke fill markers"
     d="m 194.77474,68.45622 c -4.80209,0.07025 -9.71759,2.033356 -13.7195,6.010965 -21.75484,21.628864 -43.4545,43.312585 -65.09818,65.052585 -3.89008,3.89008 -3.91188,3.87888 -7.89089,-0.089 C 97.996414,129.42771 87.903444,119.35774 77.911489,109.24351 a 18.250066,18.250066 0 0 0 -12.458266,-5.81341 19.583811,19.583811 0 0 0 -13.272318,4.51311 c -8.469267,7.36892 -8.645883,19.56169 -0.143273,28.1532 14.900872,15.0639 29.879241,30.0582 44.935712,44.9813 9.836366,9.81413 20.195126,9.8348 30.009246,0.0651 16.47914,-16.4495 32.94633,-32.91325 49.40323,-49.39239 10.44765,-10.44765 20.95058,-20.85114 31.32043,-31.3877 a 18.394556,18.394556 0 0 0 2.83507,-23.051811 c -3.60736,-5.908048 -9.59248,-8.945044 -15.76658,-8.854708 z" />
  <metadata
     id="metadata1">
    <rdf:RDF>
      <cc:Work
         rdf:about="">
        <dc:title>transaction2</dc:title>
      </cc:Work>
    </rdf:RDF>
  </metadata>
</svg>
