<?xml version="1.0" encoding="UTF-8" standalone="no"?>
<svg
   version="1.1"
   id="Layer_1"
   x="0px"
   y="0px"
   viewBox="0 0 256 256.00001"
   xml:space="preserve"
   sodipodi:docname="tx_staked.svg"
   width="256"
   height="256"
   inkscape:version="1.3.2 (091e20e, 2023-11-25, custom)"
   xmlns:inkscape="http://www.inkscape.org/namespaces/inkscape"
   xmlns:sodipodi="http://sodipodi.sourceforge.net/DTD/sodipodi-0.dtd"
   xmlns="http://www.w3.org/2000/svg"
   xmlns:svg="http://www.w3.org/2000/svg"><defs
     id="defs1" /><sodipodi:namedview
     id="namedview1"
     pagecolor="#ffffff"
     bordercolor="#000000"
     borderopacity="0.25"
     inkscape:showpageshadow="2"
     inkscape:pageopacity="0.0"
     inkscape:pagecheckerboard="0"
     inkscape:deskcolor="#d1d1d1"
     inkscape:zoom="1.3176509"
     inkscape:cx="68.303372"
     inkscape:cy="61.093572"
     inkscape:window-width="1920"
     inkscape:window-height="1129"
     inkscape:window-x="3432"
     inkscape:window-y="-8"
     inkscape:window-maximized="1"
     inkscape:current-layer="Layer_1" /><style
     type="text/css"
     id="style1"><![CDATA[
	.st0{fill-rule:evenodd;clip-rule:evenodd;}
]]></style><g
     id="g1"
     transform="matrix(1.9287108,0,0,1.9287108,23.2035,9.5000098)"
     style="fill:#440128;fill-opacity:1"><path
       class="st0"
       d="m 25.14,53.37 c -1.51,0 -2.75,1.24 -2.75,2.77 0,1.53 1.23,2.77 2.75,2.77 h 20.11 c 1.51,0 2.75,-1.24 2.75,-2.77 0,-1.53 -1.23,-2.77 -2.75,-2.77 z M 77.77,0 c 17.06,0 30.9,13.83 30.9,30.9 0,12.32 -7.21,22.95 -17.64,27.92 v 57.69 c 0,1.76 -0.71,3.35 -1.87,4.5 -1.16,1.16 -2.75,1.87 -4.5,1.87 H 6.37 c -1.76,0 -3.35,-0.71 -4.5,-1.87 C 0.71,119.85 0,118.26 0,116.51 V 22.4 c 0,-1.76 0.71,-3.35 1.87,-4.5 1.16,-1.16 2.75,-1.87 4.5,-1.87 h 44.3 C 55.93,6.47 66.09,0 77.77,0 Z m 7.78,60.81 c -2.48,0.65 -5.09,0.99 -7.78,0.99 -17.06,0 -30.9,-13.83 -30.9,-30.9 0,-3.27 0.51,-6.42 1.45,-9.38 H 6.37 c -0.24,0 -0.47,0.1 -0.63,0.26 -0.16,0.17 -0.26,0.39 -0.26,0.63 v 94.09 c 0,0.24 0.1,0.46 0.26,0.63 0.17,0.16 0.39,0.26 0.63,0.26 h 78.28 c 0.24,0 0.47,-0.1 0.63,-0.26 0.16,-0.17 0.26,-0.39 0.26,-0.63 V 60.81 Z M 25.14,92.22 c -1.51,0 -2.74,1.23 -2.74,2.74 0,1.51 1.23,2.74 2.74,2.74 h 38.47 c 1.51,0 2.74,-1.23 2.74,-2.74 0,-1.51 -1.23,-2.74 -2.74,-2.74 z m 0,-19.41 c -1.51,0 -2.74,1.23 -2.74,2.74 0,1.51 1.23,2.74 2.74,2.74 h 38.47 c 1.51,0 2.74,-1.23 2.74,-2.74 0,-1.51 -1.23,-2.74 -2.74,-2.74 z m 43.57,-47.03 5.67,5.4 11.76,-11.92 c 0.97,-0.98 1.57,-1.77 2.77,-0.54 l 3.87,3.96 c 1.27,1.26 1.21,1.99 0.01,3.16 l -16.2,15.94 c -2.53,2.48 -2.09,2.63 -4.65,0.09 l -9.75,-9.7 c -0.53,-0.58 -0.47,-1.16 0.11,-1.74 l 4.49,-4.66 c 0.67,-0.7 1.22,-0.66 1.92,0.01 z"
       id="path1"
       style="fill:#440128;fill-opacity:1" /></g></svg>
