<?xml version="1.0" encoding="UTF-8" standalone="no"?>
<svg
   version="1.1"
   viewBox="0 0 256 256"
   id="svg1"
   sodipodi:docname="edit.svg"
   inkscape:version="1.3.2 (091e20e, 2023-11-25, custom)"
   xmlns:inkscape="http://www.inkscape.org/namespaces/inkscape"
   xmlns:sodipodi="http://sodipodi.sourceforge.net/DTD/sodipodi-0.dtd"
   xmlns="http://www.w3.org/2000/svg"
   xmlns:svg="http://www.w3.org/2000/svg">
  <defs
     id="defs1" />
  <sodipodi:namedview
     id="namedview1"
     pagecolor="#ffffff"
     bordercolor="#000000"
     borderopacity="0.25"
     inkscape:showpageshadow="2"
     inkscape:pageopacity="0.0"
     inkscape:pagecheckerboard="0"
     inkscape:deskcolor="#d1d1d1"
     inkscape:zoom="4.5820312"
     inkscape:cx="127.89088"
     inkscape:cy="128"
     inkscape:window-width="3440"
     inkscape:window-height="1369"
     inkscape:window-x="-8"
     inkscape:window-y="-8"
     inkscape:window-maximized="1"
     inkscape:current-layer="svg1" />
  <title
     id="title1">edit</title>
  <path
     d="M245.49,49c-.07,6.25-3.38,13-9.18,18.76Q160.59,143.33,85.1,219.16c-7.81,7.89-16,13.23-27,15.33-14.66,2.8-29,7-43.56,10.54-4.34,1.07-4.58.82-3.47-3.65,4.47-18.17,9-36.32,13.4-54.5a15,15,0,0,1,4.11-7.4Q108.31,99.89,187.94,20.19c13-13,29.38-13,42.28-.1,3.28,3.28,6.78,6.36,9.62,10.07C243.64,35.13,245.51,40.73,245.49,49ZM52.42,192c0-6.07-3.75-10.65-9.2-11.42-5.17-.73-9.35,2.41-10.78,8.12-1.64,6.58-3.09,13.21-4.95,19.72-1,3.59-.47,5.87,3,7.68a18.57,18.57,0,0,1,8.11,8.17c1.29,2.59,3,2.94,5.52,2.29,7.42-1.92,14.84-3.82,22.3-5.54a8.05,8.05,0,0,0,6.06-5.56,10.12,10.12,0,0,0-2.73-11.33,11,11,0,0,0-13-1.42c-2.22,1.26-3.49.9-5.16-.78s-2-3-.58-4.85A8.15,8.15,0,0,0,52.42,192Z"
     id="path1"
     style="fill:#e5e4e2;fill-opacity:1" />
</svg>
