<?xml version="1.0" encoding="UTF-8" standalone="no"?>
<svg
   version="1.1"
   viewBox="0 0 256 256"
   id="svg1"
   sodipodi:docname="eye_minus.svg"
   inkscape:version="1.3.2 (091e20e, 2023-11-25, custom)"
   xmlns:inkscape="http://www.inkscape.org/namespaces/inkscape"
   xmlns:sodipodi="http://sodipodi.sourceforge.net/DTD/sodipodi-0.dtd"
   xmlns="http://www.w3.org/2000/svg"
   xmlns:svg="http://www.w3.org/2000/svg">
  <defs
     id="defs1" />
  <sodipodi:namedview
     id="namedview1"
     pagecolor="#ffffff"
     bordercolor="#000000"
     borderopacity="0.25"
     inkscape:showpageshadow="2"
     inkscape:pageopacity="0.0"
     inkscape:pagecheckerboard="0"
     inkscape:deskcolor="#d1d1d1"
     inkscape:zoom="4.5820312"
     inkscape:cx="127.89088"
     inkscape:cy="128"
     inkscape:window-width="3440"
     inkscape:window-height="1369"
     inkscape:window-x="-8"
     inkscape:window-y="-8"
     inkscape:window-maximized="1"
     inkscape:current-layer="svg1" />
  <title
     id="title1">eye_minus</title>
  <path
     d="m244.42 124.53c-14.65-20.66-32.12-38.41-53.94-51.48-33.48-20.05-68.64-24.32-105.18-9.74-31.52 12.57-55.07 35-74.3 62.41-1.42 2-0.9 3.46 0.31 5.22a184.81 184.81 0 0 0 42.28 44.12c22.06 16.36 46.51 26.15 74.33 26.27a111.32 111.32 0 0 0 42.84-8.3c31.05-12.72 54.52-34.59 73.78-61.52 1.88-2.63 1.65-4.51-0.12-6.98zm-67.56 15c-1.58 3.06-3.76 5-6.17 5h-81.69a5.31 5.31 0 0 1-3.29-1.24 2.27 2.27 0 0 1-1.68-1.77c-2.27-3-3.76-8.13-3.76-13.89s1.49-10.85 3.77-13.9c1.4-1.89 3.11-3 5-3h81.66c4.82 0 8.73 7.57 8.73 16.9a26.65 26.65 0 0 1-2.57 11.91z"
     id="path1"
     style="fill:#e5e4e2;fill-opacity:1" />
</svg>
