<?xml version="1.0" encoding="UTF-8" standalone="no"?>
<svg
   version="1.1"
   viewBox="0 0 256 256"
   id="svg2"
   sodipodi:docname="fontbigger.svg"
   inkscape:version="1.3.2 (091e20e, 2023-11-25, custom)"
   xmlns:inkscape="http://www.inkscape.org/namespaces/inkscape"
   xmlns:sodipodi="http://sodipodi.sourceforge.net/DTD/sodipodi-0.dtd"
   xmlns="http://www.w3.org/2000/svg"
   xmlns:svg="http://www.w3.org/2000/svg">
  <defs
     id="defs2" />
  <sodipodi:namedview
     id="namedview2"
     pagecolor="#ffffff"
     bordercolor="#000000"
     borderopacity="0.25"
     inkscape:showpageshadow="2"
     inkscape:pageopacity="0.0"
     inkscape:pagecheckerboard="0"
     inkscape:deskcolor="#d1d1d1"
     inkscape:zoom="3.2399853"
     inkscape:cx="-22.068001"
     inkscape:cy="102.62392"
     inkscape:window-width="3440"
     inkscape:window-height="1369"
     inkscape:window-x="-8"
     inkscape:window-y="-8"
     inkscape:window-maximized="1"
     inkscape:current-layer="svg2" />
  <title
     id="title1">fontbigger</title>
  <path
     id="rect1"
     style="display:inline;fill:#e5e4e2;fill-rule:evenodd;stroke-width:31.25;paint-order:stroke fill markers"
     d="m 70.732994,61.354181 c -4.224965,-0.2125 -6.000985,1.523855 -7.250976,5.361329 -5.624964,17.924868 -11.475434,35.78964 -17.27539,53.66455 -7.499957,23.19983 -15.052853,46.38185 -22.661134,69.54834 -1.187491,3.5875 -0.287474,4.75059 3.4375,4.66309 7.137456,-0.175 14.298091,-0.1875 21.435547,0 3.437474,0.0875 5.001465,-1.38799 5.876465,-4.56299 1.549983,-5.85 3.450009,-11.61259 5,-17.5 0.762492,-2.85 2.236834,-4.13633 5.236817,-4.11133 11.66658,0.0833 23.333442,0.0833 34.999992,0 3.012495,0 4.450195,1.24854 5.200195,4.12354 1.4125,5.41241 3.33868,10.68828 4.63868,16.11328 1.025,4.275 2.94834,6.51308 7.67334,5.91308 a 74.375,74.375 0 0 1 8.83788,-0.0122 h 12.11183 c 2.74991,0 3.63837,-1.25039 2.77587,-3.83789 -1.025,-3.1 -1.93672,-6.25117 -2.94922,-9.32617 -12.49991,-38.23306 -24.98071,-76.47438 -37.43896,-114.724119 -1.249995,-3.887474 -3.1501,-5.475 -7.2876,-5.3125 -7.499921,0.2875 -14.923389,0.3125 -22.360836,0 z M 179.0948,87.467462 c -3.62491,-0.1 -4.9996,1.336843 -4.9121,4.924316 0.15,8.062422 0,16.136812 0,24.199222 0,6.18741 -0.20176,6.36416 -6.17676,6.38916 -6.98741,0 -13.96229,0.1 -20.9497,0 -3.1625,0 -4.49913,1.13535 -4.41163,4.36035 0.15,5.42491 0.3125,10.875 0,16.25 -0.3125,4.6875 1.92539,6.0501 6.02539,6.0376 6.675,0 13.35009,0.2375 20,0 4.375,-0.175 5.70029,1.5876 5.61279,5.7251 -0.18741,8.68741 -3.9e-4,17.37695 -0.0879,26.06445 0,3.27491 0.99864,4.87295 4.53614,4.77295 6.36241,-0.1625 12.72694,-0.15 19.08935,0 3.2875,0.075 4.38682,-1.33546 4.29932,-4.46045 -0.2125,-4.575 -0.11231,-9.01416 -0.11231,-13.57666 0,-4.5 0.175,-9.01104 0,-13.49854 -0.1875,-3.925 1.49933,-5.17569 5.23683,-5.07569 6.82491,0.1875 13.66365,-0.0999 20.47606,0.1001 3.75,0.1125 5.38741,-1.075 5.21241,-5 -0.25,-5.57491 -0.2375,-11.17548 0,-16.75048 0.1625,-3.96242 -1.49961,-5.1375 -5.22461,-5 -6.6625,0.2 -13.35009,-0.12519 -20,0.11231 -4.15,0.15 -5.85039,-1.18661 -5.71289,-5.56153 0.2625,-8.525 -2e-4,-17.06317 0.1123,-25.600587 0,-3.199973 -1.24941,-4.474121 -4.39941,-4.411621 -6.25,0.125 -12.41329,0.1625 -18.61329,0 z m -97.475575,8.962403 1.237793,0.249023 c 3.43747,11.549902 6.913087,23.075972 10.288087,34.650872 2.2,7.5 2.137013,7.5 -5.712892,7.5 H 72.556725 c -2.36248,0 -3.5625,-0.82646 -2.8125,-3.37646 3.72497,-12.6249 7.455653,-25.24864 11.188965,-37.873533 a 5.4875,5.4875 0 0 1 0.686035,-1.149902 z" />
</svg>
