<?xml version="1.0" encoding="UTF-8" standalone="no"?>
<svg
   width="256"
   height="256"
   viewBox="0 0 256 256"
   version="1.1"
   id="s1"
   sodipodi:docname="qrcode.svg"
   inkscape:version="1.3.2 (091e20e, 2023-11-25, custom)"
   xmlns:inkscape="http://www.inkscape.org/namespaces/inkscape"
   xmlns:sodipodi="http://sodipodi.sourceforge.net/DTD/sodipodi-0.dtd"
   xmlns:xlink="http://www.w3.org/1999/xlink"
   xmlns="http://www.w3.org/2000/svg"
   xmlns:svg="http://www.w3.org/2000/svg"
   xmlns:rdf="http://www.w3.org/1999/02/22-rdf-syntax-ns#"
   xmlns:cc="http://creativecommons.org/ns#"
   xmlns:dc="http://purl.org/dc/elements/1.1/">
  <defs
     id="defs10" />
  <sodipodi:namedview
     id="namedview10"
     pagecolor="#ffffff"
     bordercolor="#000000"
     borderopacity="0.25"
     inkscape:showpageshadow="2"
     inkscape:pageopacity="0.0"
     inkscape:pagecheckerboard="0"
     inkscape:deskcolor="#d1d1d1"
     inkscape:zoom="1.8222656"
     inkscape:cx="94.113612"
     inkscape:cy="105.08896"
     inkscape:window-width="1920"
     inkscape:window-height="1129"
     inkscape:window-x="3432"
     inkscape:window-y="-8"
     inkscape:window-maximized="1"
     inkscape:current-layer="s1" />
  <title
     id="title1">QR coder</title>
  <desc
     id="desc1">Manually edited diagram of qr code</desc>
  <!--  <rect x="0" y="0" width="300" height="422" stroke="none" fill="#CFA"/>  -->
  <g
     transform="matrix(7.9859286,0,0,8.4585899,0.2251424,-7.3374384)"
     fill="none"
     stroke="#000000"
     stroke-width="2"
     stroke-linecap="butt"
     id="g10"
     style="stroke:#e5e4e2;stroke-opacity:1">
    <path
       id="A"
       d="m 3,3 h 8 v 8 H 3 Z m 3,4 h 2"
       style="stroke:#e5e4e2;stroke-opacity:1" />
    <use
       xlink:href="#A"
       x="18"
       y="0"
       id="use1"
       style="stroke:#e5e4e2;stroke-opacity:1" />
    <use
       xlink:href="#A"
       x="0"
       y="18"
       id="use2"
       style="stroke:#e5e4e2;stroke-opacity:1" />
    <path
       d="m 18,3 h -3 v 4 h 2 v 4 h -2 v 3"
       id="path2"
       style="stroke:#e5e4e2;stroke-opacity:1" />
    <path
       d="m 2,15 h 2 m 2,0 h 4 m 6,0 h 2 m 2,0 h 4 m 4,0 h 2"
       id="path3"
       style="stroke:#e5e4e2;stroke-opacity:1" />
    <path
       d="m 4,17 h 2 m 2,0 h 8 m 6,0 h 2 m 2,0 h 4"
       id="path4"
       style="stroke:#e5e4e2;stroke-opacity:1" />
    <path
       d="m 14,19 h 2 m 2,0 h 2 m 6,0 h 2"
       id="path5"
       style="stroke:#e5e4e2;stroke-opacity:1" />
    <path
       d="m 16,21 h 2 m 2,0 h 8"
       id="path6"
       style="stroke:#e5e4e2;stroke-opacity:1" />
    <path
       d="m 14,23 h 2 m 2,0 h 2 m 4,0 h 2 m 2,0 h 2"
       id="path7"
       style="stroke:#e5e4e2;stroke-opacity:1" />
    <path
       d="m 14,25 h 4 m 2,0 h 2 m 2,0 h 4"
       id="path8"
       style="stroke:#e5e4e2;stroke-opacity:1" />
    <path
       d="m 14,27 h 2 m 6,0 h 2 m 4,0 h 2"
       id="path9"
       style="stroke:#e5e4e2;stroke-opacity:1" />
    <path
       d="m 16,29 h 8 m 2,0 h 2"
       id="path10"
       style="stroke:#e5e4e2;stroke-opacity:1" />
  </g>
  <!-- vim:nowrap:sw=2:so=2:et:ai: -->
  <metadata
     id="metadata10">
    <rdf:RDF>
      <cc:Work
         rdf:about="">
        <dc:title>QR coder</dc:title>
      </cc:Work>
    </rdf:RDF>
  </metadata>
</svg>
