<?xml version="1.0" encoding="UTF-8" standalone="no"?>
<svg
   version="1.1"
   viewBox="0 0 256 256"
   id="svg1"
   sodipodi:docname="remove.svg"
   inkscape:version="1.3.2 (091e20e, 2023-11-25, custom)"
   xmlns:inkscape="http://www.inkscape.org/namespaces/inkscape"
   xmlns:sodipodi="http://sodipodi.sourceforge.net/DTD/sodipodi-0.dtd"
   xmlns="http://www.w3.org/2000/svg"
   xmlns:svg="http://www.w3.org/2000/svg">
  <defs
     id="defs1" />
  <sodipodi:namedview
     id="namedview1"
     pagecolor="#ffffff"
     bordercolor="#000000"
     borderopacity="0.25"
     inkscape:showpageshadow="2"
     inkscape:pageopacity="0.0"
     inkscape:pagecheckerboard="0"
     inkscape:deskcolor="#d1d1d1"
     inkscape:zoom="4.5820312"
     inkscape:cx="128"
     inkscape:cy="128"
     inkscape:window-width="1920"
     inkscape:window-height="1129"
     inkscape:window-x="3432"
     inkscape:window-y="-8"
     inkscape:window-maximized="1"
     inkscape:current-layer="svg1" />
  <title
     id="title1">remove</title>
  <path
     d="M127.72,11.3A118.23,118.23,0,1,0,246,129.47,118,118,0,0,0,127.72,11.3ZM183.54,167a13,13,0,0,1,.89,17.28c-.28.34-.57.66-.89,1a12.94,12.94,0,0,1-18.26,0L130.09,150.1,94.9,185.29a13,13,0,0,1-18.26,0,11.44,11.44,0,0,1-.88-1A13,13,0,0,1,76.64,167l35.19-35.19L76.64,96.65a13,13,0,0,1-2-15.7,12.72,12.72,0,0,1,2-2.56,13,13,0,0,1,18.26,0l35.19,35.19,35.19-35.19a13,13,0,0,1,18.26,0,11.44,11.44,0,0,1,.88,1,12.94,12.94,0,0,1-.88,17.28l-35.19,35.19Z"
     id="path1"
     style="fill:#e5e4e2;fill-opacity:1" />
</svg>
