<?xml version="1.0" encoding="UTF-8" standalone="no"?>
<svg
   version="1.1"
   id="svg4142"
   viewBox="0 0 240.02953 239.84201"
   height="256"
   width="256"
   sodipodi:docname="transaction0.svg"
   inkscape:version="1.3.2 (091e20e, 2023-11-25, custom)"
   xmlns:inkscape="http://www.inkscape.org/namespaces/inkscape"
   xmlns:sodipodi="http://sodipodi.sourceforge.net/DTD/sodipodi-0.dtd"
   xmlns="http://www.w3.org/2000/svg"
   xmlns:svg="http://www.w3.org/2000/svg"
   xmlns:rdf="http://www.w3.org/1999/02/22-rdf-syntax-ns#"
   xmlns:cc="http://creativecommons.org/ns#"
   xmlns:dc="http://purl.org/dc/elements/1.1/">
  <sodipodi:namedview
     id="namedview1"
     pagecolor="#ffffff"
     bordercolor="#000000"
     borderopacity="0.25"
     inkscape:showpageshadow="2"
     inkscape:pageopacity="0.0"
     inkscape:pagecheckerboard="0"
     inkscape:deskcolor="#d1d1d1"
     inkscape:document-units="mm"
     inkscape:zoom="2.1480915"
     inkscape:cx="-68.898369"
     inkscape:cy="120.80491"
     inkscape:window-width="3440"
     inkscape:window-height="1369"
     inkscape:window-x="-8"
     inkscape:window-y="-8"
     inkscape:window-maximized="1"
     inkscape:current-layer="svg4142" />
  <defs
     id="defs4144" />
  <metadata
     id="metadata4147">
    <rdf:RDF>
      <cc:Work
         rdf:about="">
        <dc:format>image/svg+xml</dc:format>
        <dc:type
           rdf:resource="http://purl.org/dc/dcmitype/StillImage" />
      </cc:Work>
    </rdf:RDF>
  </metadata>
  <g
     id="layer1"
     transform="matrix(2.0541355,0,0,2.0541355,-595.71378,-1040.2495)"
     style="fill:#e5e4e2;fill-opacity:1">
    <path
       id="path4792"
       d="m 348.8,513.8 c -12.7,-0.7 -24.9,9.1 -27,21.7 -3.8,8.8 7.2,13.7 13.7,9.2 3.1,-7.5 9.4,-17.9 18.9,-11.6 9.7,6.1 2.1,17.6 -3,24.1 -6.1,7.8 -11.4,14.8 -8.9,23 5.4,17.7 10.8,3.7 12.8,-0.1 4.3,-8.2 6,-8.8 11.5,-16.1 6.4,-8.6 11.6,-19.9 7.7,-30.8 -2.8,-11.5 -13.9,-19.9 -25.7,-19.4 z m -0.7,84.7 c -11.4,2.4 -9.1,19.5 2.7,17.1 11.8,-2.4 8.7,-19.5 -2.7,-17.1 z"
       style="fill:#e5e4e2;fill-opacity:1" />
  </g>
</svg>
