<?xml version="1.0" encoding="UTF-8" standalone="no"?>
<svg
   version="1.1"
   viewBox="0 0 256 256"
   id="svg2"
   sodipodi:docname="tyrianpurple_transaction_abandoned.svg"
   inkscape:version="1.3.2 (091e20e, 2023-11-25, custom)"
   xmlns:inkscape="http://www.inkscape.org/namespaces/inkscape"
   xmlns:sodipodi="http://sodipodi.sourceforge.net/DTD/sodipodi-0.dtd"
   xmlns="http://www.w3.org/2000/svg"
   xmlns:svg="http://www.w3.org/2000/svg">
  <defs
     id="defs2" />
  <sodipodi:namedview
     id="namedview2"
     pagecolor="#ffffff"
     bordercolor="#000000"
     borderopacity="0.25"
     inkscape:showpageshadow="2"
     inkscape:pageopacity="0.0"
     inkscape:pagecheckerboard="0"
     inkscape:deskcolor="#d1d1d1"
     inkscape:zoom="4.5820312"
     inkscape:cx="128.10912"
     inkscape:cy="128"
     inkscape:window-width="3440"
     inkscape:window-height="1369"
     inkscape:window-x="-8"
     inkscape:window-y="-8"
     inkscape:window-maximized="1"
     inkscape:current-layer="svg2" />
  <title
     id="title1">transaction_abandonded</title>
  <path
     d="M128.19,96.06q34.6,0,69.22,0c5.73,0,6.09.24,5.7,4.84-1.82,21.4-3.76,42.79-5.56,64.19-1.26,15-2.32,30.09-3.57,45.13-.69,8.44-1.22,16.91-2.47,25.3-1.14,7.66-6.74,11.35-15.91,11.35H80.51c-9.19,0-14.87-3.69-16-11.3-1.27-8.62-1.77-17.32-2.52-26q-2.44-28.45-4.81-56.91c-.93-11.11-1.79-22.22-2.7-33.32-.52-6.36-1-12.73-1.67-19.08-.34-3.16,1-4.28,4.87-4.26C81.2,96.12,104.69,96.06,128.19,96.06Z"
     id="path1"
     style="fill:#66023c;fill-opacity:1" />
  <path
     d="M203.17,40.89H159V23a12,12,0,0,0-12-12H109A12,12,0,0,0,97,23V40.89H52.83A16.34,16.34,0,0,0,36.5,57.23v1.14A16.33,16.33,0,0,0,52.83,74.7H203.17A16.33,16.33,0,0,0,219.5,58.37V57.23A16.34,16.34,0,0,0,203.17,40.89Zm-68.17,0H121V34.61a2.72,2.72,0,0,1,2.71-2.71h8.58A2.72,2.72,0,0,1,135,34.61Z"
     id="path2"
     style="fill:#66023c;fill-opacity:1" />
</svg>
