<?xml version="1.0" encoding="UTF-8" standalone="no"?>
<svg
   version="1.1"
   viewBox="0 0 256 256"
   id="svg1"
   sodipodi:docname="warning.svg"
   inkscape:version="1.3.2 (091e20e, 2023-11-25, custom)"
   xmlns:inkscape="http://www.inkscape.org/namespaces/inkscape"
   xmlns:sodipodi="http://sodipodi.sourceforge.net/DTD/sodipodi-0.dtd"
   xmlns="http://www.w3.org/2000/svg"
   xmlns:svg="http://www.w3.org/2000/svg">
  <defs
     id="defs1" />
  <sodipodi:namedview
     id="namedview1"
     pagecolor="#ffffff"
     bordercolor="#000000"
     borderopacity="0.25"
     inkscape:showpageshadow="2"
     inkscape:pageopacity="0.0"
     inkscape:pagecheckerboard="0"
     inkscape:deskcolor="#d1d1d1"
     inkscape:zoom="4.5820312"
     inkscape:cx="127.89088"
     inkscape:cy="128"
     inkscape:window-width="3440"
     inkscape:window-height="1369"
     inkscape:window-x="-8"
     inkscape:window-y="-8"
     inkscape:window-maximized="1"
     inkscape:current-layer="svg1" />
  <title
     id="title1">warning</title>
  <path
     d="m128.16 246.93a117.75 117.75 0 1 1 117.84-117.49 117.57 117.57 0 0 1-117.84 117.49zm1.44-205.32h-19.6c-1.75 0-3 0.28-2.8 2.57 0.32 3.66 0.37 7.35 0.59 11q1.68 28.61 3.4 57.2c0.69 11.6 1.44 23.21 2 34.82 0.13 2.47 1.13 3.29 3.5 3.26q12.46-0.12 24.94 0c2.5 0 3.59-0.74 3.74-3.41 1.06-18.83 2.29-37.65 3.38-56.48 0.89-15.28 1.62-30.57 2.58-45.84 0.15-2.47-0.61-3.18-2.89-3.15-6.25 0.07-12.54 0.03-18.84 0.03zm-0.28 168.7c14.05 0 24.53-10.37 24.45-24.19-0.08-14.17-10.53-24.73-24.45-24.73-14.1 0-24.37 10.34-24.46 24.63-0.08 13.72 10.56 24.29 24.46 24.29z"
     id="path1"
     style="fill:#e5e4e2;fill-opacity:1" />
</svg>
