<?xml version="1.0" encoding="UTF-8" standalone="no"?>
<!-- Uploaded to: SVG Repo, www.svgrepo.com, Generator: SVG Repo Mixer Tools -->

<svg
   fill="#000000"
   version="1.1"
   id="Capa_1"
   width="116"
   height="116"
   viewBox="0 0 132.2677 132.2677"
   xml:space="preserve"
   sodipodi:docname="spinner.svg"
   inkscape:version="1.3.2 (091e20e, 2023-11-25, custom)"
   inkscape:export-filename="Movies\spinner30.svg"
   inkscape:export-xdpi="96"
   inkscape:export-ydpi="96"
   xmlns:inkscape="http://www.inkscape.org/namespaces/inkscape"
   xmlns:sodipodi="http://sodipodi.sourceforge.net/DTD/sodipodi-0.dtd"
   xmlns="http://www.w3.org/2000/svg"
   xmlns:svg="http://www.w3.org/2000/svg"><defs
   id="defs2" /><sodipodi:namedview
   id="namedview2"
   pagecolor="#ffffff"
   bordercolor="#000000"
   borderopacity="0.25"
   inkscape:showpageshadow="2"
   inkscape:pageopacity="0.0"
   inkscape:pagecheckerboard="0"
   inkscape:deskcolor="#d1d1d1"
   inkscape:zoom="2.9325"
   inkscape:cx="0.85251492"
   inkscape:cy="49.616368"
   inkscape:window-width="3440"
   inkscape:window-height="1369"
   inkscape:window-x="-8"
   inkscape:window-y="-8"
   inkscape:window-maximized="1"
   inkscape:current-layer="Capa_1" />
<g
   id="g2"
   style="fill:#e5e4e2;fill-opacity:1"
   transform="matrix(-0.05108121,-0.10954415,-0.10954415,0.05108121,139.39404,92.798448)">
	<path
   d="m 248.709,421.475 c 28.995,0 52.5,-23.505 52.5,-52.5 0,-28.995 -23.505,-52.5 -52.5,-52.5 h -58.165 c 20.598,-38.935 49.764,-73.439 85.14,-100.095 52.277,-39.393 114.623,-60.214 180.296,-60.214 34.612,0 68.514,5.831 100.764,17.331 31.17,11.115 60.16,27.273 86.16,48.024 52.043,41.536 89.225,99.817 104.695,164.109 5.789,24.063 27.293,40.231 51,40.229 4.062,0 8.199,-0.477 12.324,-1.469 28.189,-6.783 45.545,-35.135 38.762,-63.325 C 839.126,317.193 821.38,275.645 796.937,237.573 772.941,200.201 743.154,167.189 708.402,139.454 673.304,111.442 634.144,89.621 592.009,74.596 548.409,59.049 502.642,51.165 455.979,51.165 c -44.688,0 -88.618,7.244 -130.576,21.529 -40.568,13.813 -78.557,33.942 -112.908,59.827 -33.947,25.58 -63.55,56.175 -87.985,90.936 -6.982,9.932 -13.478,20.147 -19.511,30.605 v -83.971 c 0,-28.995 -23.505,-52.5 -52.5,-52.5 C 23.504,117.591 0,141.097 0,170.092 v 198.884 c 0,28.995 23.505,52.5 52.5,52.5 z"
   id="path1"
   style="fill:#e5e4e2;fill-opacity:1" />
	<path
   d="M 859.691,490.717 H 663.48 c -28.994,0 -52.5,23.506 -52.5,52.5 0,28.996 23.506,52.5 52.5,52.5 h 58.027 c -23.443,44.539 -57.707,82.494 -100.008,110.547 -49.053,32.531 -106.244,49.738 -165.397,49.762 -34.575,-0.012 -68.441,-5.842 -100.657,-17.33 -31.172,-11.115 -60.16,-27.273 -86.161,-48.025 -52.044,-41.535 -89.225,-99.816 -104.694,-164.107 -6.782,-28.189 -35.132,-45.543 -63.325,-38.762 -28.19,6.783 -45.544,35.135 -38.761,63.324 10.556,43.873 28.303,85.422 52.748,123.492 23.995,37.373 53.782,70.385 88.534,98.119 35.098,28.014 74.258,49.834 116.393,64.859 43.477,15.502 89.107,23.381 135.634,23.426 0.056,0 0.109,0.004 0.166,0.004 0.042,0 0.083,0 0.125,0 0.036,0 0.07,0 0.106,0 0.043,0 0.086,-0.002 0.13,-0.002 79.779,-0.07 156.951,-23.322 223.195,-67.256 52.834,-35.039 96.381,-81.557 127.656,-135.996 v 84.33 c 0,28.994 23.504,52.5 52.5,52.5 28.994,0 52.5,-23.506 52.5,-52.5 V 543.217 c 0,-28.994 -23.505,-52.5 -52.5,-52.5 z"
   id="path2"
   style="fill:#e5e4e2;fill-opacity:1" />
</g>
</svg>
